/* XPM */
static char *result[] = {
/* columns rows colors chars-per-pixel */
"80 80 77 1 ",
"  c black",
". c #050302",
"X c #060402",
"o c #0F0806",
"O c #100907",
"+ c #110907",
"@ c #110A07",
"# c #140B08",
"$ c #160C09",
"% c #1F110C",
"& c #22130E",
"* c #24140F",
"= c #26150F",
"- c #2F1B13",
"; c #301B13",
": c #301B14",
"> c #321C14",
", c #351E15",
"< c #2C211D",
"1 c #3E2319",
"2 c #45271C",
"3 c #46281D",
"4 c #48291D",
"5 c #4E2D20",
"6 c #502E21",
"7 c #643929",
"8 c #693B2B",
"9 c #6A3C2C",
"0 c #6B3C2C",
"q c #6B3D2C",
"w c #56413A",
"e c #5B4239",
"r c #7B4633",
"t c #7C4632",
"y c #7F4834",
"u c #724B3D",
"i c #754B3C",
"p c #7A5548",
"a c #7A5648",
"s c #73584E",
"d c #7C584A",
"f c #7D584B",
"g c #7D5A4D",
"h c #824935",
"j c #8F513B",
"k c #935742",
"l c #945843",
"z c #9C6551",
"x c #9E6956",
"c c #9F6A58",
"v c #A06B58",
"b c #A06C59",
"n c #8F7065",
"m c #8A756D",
"M c #927469",
"N c #A2796A",
"B c #A57B6C",
"V c #AD8171",
"C c #AE8373",
"Z c #B08576",
"{ c #673AB7",
"A c #B18676",
"S c #B48C7E",
"D c #B58D7F",
"F c #B68F81",
"G c #B99385",
"H c #BB9689",
"J c #C9ABA1",
"K c #D6C0B9",
"L c #D8C3BB",
"P c #DAC5BF",
"I c #E6D9D4",
"U c #F2EBE9",
"Y c #F4EEEC",
"T c #F6F1EF",
"R c #F8F5F3",
"E c white",
/* pixels */
"{::222222477777777777jjjjjj 777jjjjjjjjjjjjjjjjjjjjjjjjjjjjjjjjjjjjjjjVZZZZZZZZZ",
"  :222222477777777777jjjjjj 777jjjjjjjjjjjjjjjjjjjjjjjjjjjjjjjjjjjjjjjVZZZZZZZZZ",
"     2222227777777777jjjjjj 777jjjjjjjjjjjjjjjjjjjjjjjjjjjjjjjjjjjjjjjVZZZZZZZZZ",
":::  2222227777777777jjjjjj 777jjjjjjjjjjjjjjjjjjjjjjjjjjjjjjjjjjjjjjZZZZZZZZZZZ",
"222   22222777777777jjjjjjj 777jjjjjjjjjjjjjjjjjjjjjjjjjjjjjjjjjjjjjjZZZZZZZZZZZ",
"22222  =222777777777jjjjjjj 777jjjjjjjjjjjjjjjjjjjjjjjjjjjjjjjjjjjjjjZZZZZZZZZZZ",
"222222  $22777777777jjjjjjj 777jjjjjjjjjjjjjjjjjjjjjjjjjjjjjjjjjjjjjZZZZZZZZZZZZ",
"222222=+$2277777777tjjjjjjj 777jjjjjjjjjjjjjjjjjjjjjjjjjjjjjjjjjjjjjZZZZZZZZZZZZ",
"2222222%o>277777777jjjjjjjj 777hjjjjjjjjjjjjjjjjjjjjjjjjjjjjjjjjjjjjZZZZZZZZZZZZ",
"2222222&.X177777777jjjjjjjj 7777jjjjjjjjjjjjjjjjjjjjjjjjjjjjjjjjjjjjZZZZZZZZZZZZ",
"22222222-  77777777jjjjjjjj 7777jjjjjjjjjjjjjjjjjjjjjjjjjjjjjjjjjjjjZZZZZZZZZZZZ",
"2222222221   777777jjjjjjjj 7777jjjjjjjjjjjjjjjjjjjjjjjjjjjjjjjjjjjZZZZZZZZZZZZZ",
"222222222477  77777jjjjjjjj 7777jjjjjjjjjjjjjjjjjjjjjjjjjjjjjjjjjjjZZZZZZZZZZZZZ",
"7777777777777   7777jjjjjjj 7777jjjjjjjjjjjjjjjjjjjjjjjjjjjjjjjjjjjZZZZZZZZZZZZZ",
"777777777777M7  7777jjjjjjj 7777jjjjjjjjjjjjjjjjjjjjjjjjjjjjjjjjjjjZZZZZZZZZZZZZ",
"77777777uMMM;77  777jjjjjjj 7777jjjjjjjjjjjjjjjjjjjjjjjjjjjjjjjjjjjZZZZZZZZZZZZZ",
"7777777gs;;;7777 777jjjjjjj 777jjjjjjjjjjjjjjjjjjjjjjjjjjjjjjjjjjjjZZZZZZZZZZZZZ",
"7777777nm,7777777 77jjjjjj  777jjjjjjjjjjjjjjjjjjjjjjjjjjjjjjjjjjjjZZZZZZZZZZZZZ",
"777777Me;,7777777  7jjjjjj  777jjjjjjjjjjjjjjjjjjjjjjjjjjjjjjjjjjjjZZZZZZZZZZZZZ",
"777777777777777777  jjjjjj  777jjjjjjjjjjjjjjjjjjjjjjjjjjjjjjjjjjjjZZZZZZZZZZZZZ",
"77777jjjjjjjjjjj7jj  jjjjj  77jjjjjjjjjjjjjjjjjjjjjjjjjjjjjjjjjjjjZZZZZZZZZZZZZZ",
"jjjjjjjjjjjjjjjjjjjj   yjj  77jjjjjjjjjjjjjjjjjjjjjjjjjjjjjjjjjjjjZAZZZZZZZZZZZZ",
"jjjjjjjjjjjjjjjjjjjjr  @##  77jjjjjjjjjjjjjjjjjjjjjjjjjjjjjjjjjjjjZAZZZZZZZZZZZZ",
"jjjjjjjjjjjjjjjjjjjjj       77jjjjjjjjjjjjjjjjjjjjjjjjjjjjjjjjjjjjZAZZZZZZZZZZZZ",
"jjjjjjjjjjjjjjjjjjjjj       77jjjjjjjjjjjjjjjjjjjjjjjjjjjjjjjjjjjjZAZZZZZZZZZZZZ",
"jjjjjjjjjjjjjjjjjjjjjj#     77jjjjjjjjjjjjjjjjjjjjjjjjjjjjjjjjjjjjZAZZZZZZZZZZZZ",
"jjjjjjjjjjjjjjjjjjjjjj#      77jjjjjjjjjjjjjjjjjjjjjjjjjjjjjjA3jjjZAZZZZZZZZZZZZ",
"                             77jjjjjjjjjjjjjjjjjjjjjjjjjjjjjA33jjjZZZZZZZZZZZZZZ",
"77777777777777777777777777    7jjjjjjjjjjjjjjjjjjjjjjjjjjjjjA3jjjjZZZZZZZZZZZZZZ",
"777777777777777777jj77777777  jjjjjjjjjjjjjjjjjjjjjjjjjjjjjjA3jjjjZAZZZZZZZZZZZZ",
"77jjjjjjjjjjjjjjjjjjjjjjjjjjj  jjjjjjjjjjjjjjjjjjjjjjjjjjjjA33jjjjZAZZZZZZZZZZZZ",
"jjjjjjjjjjjjjjjjjjjjjjjjjjjjjj  jjjjjjjjjjjjjjjjjjjjjjjjjjjA3jjjjjZAZZZZZZZZZZZZ",
"jjjjjjjjjjjjjjjjjjjjjjjjjjjjjjj   jjjjjjjjjjjjjjjjjjjjjjjlA33jjjjjZAZZZZZZZZZZZZ",
"jjjjjjjjjjjjjjjjjjjjjjjjjjjjjjjjA  jjjjjjjjjjjjjjjjjjjjjjlA3jjjjjjZAZZZZZZZZZZZZ",
"jjjjjjjjjjjjjjjjjjjjjjjjjjjjjjjjA2  jjjjjjjjjjjjjjjjjjjjkN33jjjjjjZZZZZZZZZZZZZZ",
"jjjjjjjjjjjjjjjjjjjjjjjjjjjjjjjjA2j  jjjjjjjjjjjjjjjjjjAB33jjjjjjjZZZZZZZZZZZZZZ",
"jjjjjjjjjjjjjjjjjjjjjjjjjjjjjjjjA2jj jjjjjjjjjjjjjjjjAA336jjjjjjjjZZZZZZZZZZZZZZ",
"jjjjjjjjjjjjjjjjjjjjjjjjjjjjjjjjA2jj  jjjjjjjjjjjAAAA3335jjjjjjjjjZZZZZZZZZZZZZZ",
"jjjjjjjjjjjjjjjjjjjjjjjjjjjjjjjA2jjjj  3jjjjjAAAA33333jjjjjjjjjjjjZZZZZZZZZZZZZZ",
"jjjjjjjjjjjjjjjjjjjjjjjjjjjjjjvd8jjjj3 *ivvvvffff39999jjjjjjjjjjjjZZZZZZZZZZZZZZ",
"jjjjjjjjjjjjjjjjjjjjjjjjjjjjjbp0jjjjjj  <waaa3qqqqjjjjjjjjjjjjjjjjZZZZZZZZZZZZZZ",
"jjjjjjjjjjjjjjjjjjjjjjjjjjjjjA2jjjjjjj    3333jjjjjjjjjjjjjjjjjjjjZZZZZZZZZZZZZZ",
"jjjjjjjjjjjjjjjjjjjjjjjjjjjjjA2jjjjjjjjj3   jjjjjjjjjjjjjjjjjjjjjjZZZZZZZZZZZZZZ",
"jjjjjjjjjjjjjjjjjjjjjjjjjjjjA2jjjjjjjjjjjjj   jjjjjjjjjjjjjjjjjjjjZZZZZZZZZZZZZZ",
"jjjjjjjjjjjjjjjjjjjjjjjjjjjjA2jjjjjjjjjjjjjj  jjjjjjjjjjjjjjjjjjjjZZZZZZZZZZZZZZ",
"jjjjjjjjjjjjjjjjjjjjjjjjjjjjA2jjjjjjjjjjjjjjj  jjjjjjjjjjjjjjjjjjjZZZZZZZZZZZZZZ",
"jjjjjjjjjjjjjjjjjjjjjjjjjjjjA2jjjjjjjjjjjjjjjj jjjjjjjjjjjjjjjjjjjZZZZZZZZZZZZZZ",
"jjjjjjjjjjjjjjjjjjjjjjjjjjjjA2jjjjjjjjjjjjjjjj  jjjjjjjjjjjjjjjjjjZZZZZZZZZZZZZZ",
"jjjjjjjjjjjjjjjjjjjjjjjjjjjjA2jjjjjjjjjjjjjjjj   jjjjjjjjjjjjjjjjjZZZZZZZZZZZZEE",
"jjjjjjjjjjjjjjjjjjjjjjjjjjjjA2jjjjjjjjjjjjjjjjj   jjjjjjjjjjjjjjjjZZZZZZZZZEEEZZ",
"jjjjjjjjjjjjjjjjjjjjjjjjjjjAA2jjjjjjjjjjjjjjjjj    jjjjjjjjjjjjjjjZZZZZIEEEZZZZZ",
"jjjjjjjjjjjjjjjjjjjjjjjjjjA22jjjjjjjjjjjjjjjjjjjj   jjjjjjjjjjjjjjZZZEEELZZZZZZZ",
"jjjjjjjjjjjjjjjjjjjjjjjjjjA2jjjjjjjjjjjjjjjjjjjjjjjj  jjjjjjjjjjjjEEEZZZKEZZZZZZ",
"jjjjjjjjjjjjjjjjjjjjjjjjjjjjjjjjjjjjjjjjjjjjjjjjjjjjj   OjjjjjjjjEEZZZZZKEZZZZZZ",
"jjjjjjjjjjjjjjjjjjjjjjjjjjjjjjjjjjjjjjjjjjjjjjjjjjjjjj   #jjjjjjEEjZZZZZKEEZZZZZ",
"jjjjjjjjjjjjjjjjjjjjjjjjjjjjjjjjjjjjjjjjjjjjjjjjjjjjjjj    jjjjEjjjZZZZZZZEZZEEE",
"jjjjjjjjjjjjjjjjjjjjjjjjjjjjjjjjjjjjjjjjjjjjjjjjjjjjjjjOo  yjjzUjjjZZZZZZZEGGTTT",
"jjjjjjjjjjjjjjjjjjjjjjjjjjjjjjjjjjjjjjjjjjjjjjjjjjjjjjjjy   rrExxjjZZZZZDHEEYZZZ",
"jjjjjjjjjjjjjjjjjjjjjjjjjjjjjjjjjjjjjjjjjjjjjjjjjjjjjjjjy     EEEjjZZZZZKEEEZZZZ",
"jjjjjjjjjjjjjjjjjjjjjjjjjjjjjjjjjjjjjjjjjjjjjjjjjjjjjjjjjr   E  EjjZZZZILZZEZZZZ",
"jjjjjjjjjjjjjjjjjjjjjjjjjjjjjjjjjjjjjjjjjjjjjjjjjjjjjjjjjr   E  EE ZZZRELZZEZZZZ",
"jjjjjjjjjjjjjjjjjjjjjjjjjjjjjjjjjjjjjjjjjjjjjjjjjjjjjjjjjjj E    EEZZEEJZZZEZZZZ",
"jjjjjjjjjjjjjjjjjjjjjjjjjjjjjjjjjjjjjjjjjjjjjjjjjjjjjjjjjjj E     EEZEFZZZZEEZZZ",
"jjjjjjjjjjjjjjjjjjjjjjjjjjjjjjjjjjjjjjjjjjjjjjjjjjjjjjjjjjjEE      EEEFZZZZZEZZZ",
"jjjjjjjjjjjjjjjjjjjjjjjjjjjjjjjjjjjjjjjjjjjjjjjjjjjjjjjjjjjE       EEZZZZZZZEZZE",
"jjjjjjjjjjjjjjjjjjjjjjjjjjjjjjjjjjjjjjjjjjjjjjjjjjjjjjjjjjjEj      EEZZZZZZZZEEE",
"jjjjjjjjjjjjjjjjjjjjjjjjjjjjjjjjjjjjjjjjjjjjjjjjjjjjjjjjjxEEj      EZEFZZZZZEEZZ",
"jjjjjjjjjjjjjjjjjjjjjjjjjjjjjjjjjjjjjjjjjjjjjjjjjjjjjjjjjxEjj     ZEZEEJZZZZEEEZ",
"jjjjjjjjjjjjjZZZZZZZZZZZZZZjjjjjjjjjjjjjjjjjjjjjjjjjjjjjjxEjjj    EZZZRELZZEEZEZ",
"ZZZZZZZZZZZZZZZZZZZZZZZZZZZZZZZZZZZZZZZZcjjjjjjjjjZZZZZZZHEZZZZZZZEZZZZIEEZEZZEZ",
"ZZZZZZZZZZZZZZZZZZZZZZZZZZZZZZZZZZZZZZZZCVVVVVVVVVZZZZZZZHEZZZZZZZEZZZZSPERFZZER",
"ZZZZZZZZZZZZZZZZZZZZZZZZZZZZZZZZZZZZZZZZZZZZZZZZZZZZZZZZZHEZZZZZZZEZZZZZKEEZZZJE",
"ZZZZZZZZZZZZZZZZZZZZZZZZZZZZZZZZZZZZZZZZZZZZZZZZZZZZZZZZZHEZKKZZZZEZZZZZKEEKZZZE",
"ZZZZZZZZZZZZZZZZZZZZZZZZZZZZZZZZZZZZZZZZZZZZZZZZZZZZZZZZZHEZEEZZZZEZZZZZKEEEZZZE",
"ZZZZZZZZZZZZZZZZZZZZZZZZZZZZZZZZZZZZZZZZZZZZZZZZZZZZZZZZZHEZZEEZZZEZZZZZKEZEZZZE",
"ZZZZZZZZZZZZZZZZZZZZZZZZZZZZZZZZZZZZZZZZZZZZZZZZZZZZZZZZZHEZZZEEEEEZZZZIEEZZEZZZ",
"ZZZZZZZZZZZZZZZZZZZZZZZZZZZZZZZZZZZZZZZZZZZZZZZZZZZZZZZZZHEZZZZZZEEEEEEEEEZZZEEZ",
"ZZZZZZZZZZZZZZZZZZZZZZZZZZZZZZZZZZZZZZZZZZZZZZZZZZZZZZZZZHEZZZZZZEZZZZZIEEEEEEEE",
"ZZZZZZZZZZZZZZZZZZZZZZZZZZZZZZZZZZZZZZZZZZZZZZZZZZZZZZZZZHEZZZZZZEZZZZZILZZZZZZE",
"ZZZZZZZZZZZZZZZZZZZZZZZZZZZZZZZZZZZZZZZZZZZZZZZZZZZZZZZZZHEZZZZZZEZZZZZILZZZZZZZ"
};
