/* XPM */
static char *result[] = {
/* columns rows colors chars-per-pixel */
"80 80 77 1 ",
"  c black",
". c #050302",
"{ c #673AB7",
"X c #060402",
"o c #0F0806",
"O c #100907",
"+ c #110907",
"@ c #110A07",
"# c #140B08",
"$ c #160C09",
"% c #1F110C",
"& c #22130E",
"* c #24140F",
"= c #26150F",
"- c #2F1B13",
"; c #301B13",
": c #301B14",
"> c #321C14",
", c #351E15",
"< c #2C211D",
"1 c #3E2319",
"2 c #45271C",
"3 c #46281D",
"4 c #48291D",
"5 c #4E2D20",
"6 c #502E21",
"7 c #643929",
"8 c #693B2B",
"9 c #6A3C2C",
"0 c #6B3C2C",
"q c #6B3D2C",
"w c #56413A",
"e c #5B4239",
"r c #7B4633",
"t c #7C4632",
"y c #7F4834",
"u c #724B3D",
"i c #754B3C",
"p c #7A5548",
"a c #7A5648",
"s c #73584E",
"d c #7C584A",
"f c #7D584B",
"g c #7D5A4D",
"h c #824935",
"j c #8F513B",
"k c #935742",
"l c #945843",
"z c #9C6551",
"x c #9E6956",
"c c #9F6A58",
"v c #A06B58",
"b c #A06C59",
"n c #8F7065",
"m c #8A756D",
"M c #927469",
"N c #A2796A",
"B c #A57B6C",
"V c #AD8171",
"C c #AE8373",
"Z c #B08576",
"A c #B18676",
"S c #B48C7E",
"D c #B58D7F",
"F c #B68F81",
"G c #B99385",
"H c #BB9689",
"J c #C9ABA1",
"K c #D6C0B9",
"L c #D8C3BB",
"P c #DAC5BF",
"I c #E6D9D4",
"U c #F2EBE9",
"Y c #F4EEEC",
"T c #F6F1EF",
"R c #F8F5F3",
"E c white",
/* pixels */
"{ZZZZZZZZZZZZZZZZZZZZZZZZZZZZZZZZZZZZZZZZZZZZZZZEZZZZZZETZZZZZZZEEZZZZREEEEZZEEZ",
"ZZZZZZZZZZZZZZZZZZZZZZZZZZZZZZZZZZZZZZZZZZZZZZZZEZZZZZZETZZZZZZZZEZEEEEJZZZZEEZZ",
"ZZZZZZZZZZZZZZZZZZZZZZZZZZZZZZZZZZZZZZZZZZZZZZZZZEZZZZZETZZZZZZZZEEEZZZZZZZZEEZZ",
"ZZZZZZZZZZZZZZZZZZZZZZZZZZZZZZZZZZZZZZZZZZZZZZZZZEZZZZZZGYZZZZEEEZEEEZZZZZZEZEZZ",
"ZZZZZZZZZZZZZZZZZZZZZZZZZZZZZZZZZZZZZZZZZZZZZZZZZEZZZZZZGEEEEEEZZZZZEEFZKEEZZEZZ",
"ZZZZZZZZZZZZZZZZZZZZZZZZZZZZZZZZZZZZZZZZZZZZZZZZZZEZZZEEEEEZZZZZZZZZZZREEEZZZEZZ",
"ZZZZZZZZZZZZZZZZZZZZZZZZZZZZZZZZZZZZZZZZZZZZZZZZZZEZEEEZZHEZZZZZZZZZZEEEEEEEEEZZ",
"ZZZZZZZZZZZZZZZZZZZZZZZZZZZZZZZZZZZZZZZZZZZZZZZZZZELKKKZZDKLLZZZZZZZLEPKKKKEEELL",
"ZZZZZZZZZZZZZZZZZZZZZZZZZZZZZZZZZZZZZZZZZZZZZZZZZZIEZZZZZZZIEJZZZZZJEISZZZZIEIII",
"VVVZZZZZZZZZZZZZZZZZZZZZZZZZZZZZZZZZZZZZZZZZZZZZZZZEZZZZZZZZREFFZZFERZZZZZZZEZZZ",
"jjjZZZZZZZZZZZZZZZZZZZZZZZZZZZZZZZZZZZZZZZZZZZZZZZZEZZZZZZZZZEEEZZEEZZZZZZZZEZZZ",
"jjjjjjZZZZZZZZZZZZZZZZZZZZZZZZZZZZZZZZZZZZZZZZZZZZZZEZZZZZZZZZZEEEZZZZZZZZZZEZZZ",
"jjjjjjjjjjjZZZZZZZZZZAAAAAAZZAAAAAZZZZZZZZZZZZZZZZZZEZZZZZZZZZEEEEEEZZZZZZZZEZZZ",
"jjjjjjjjjjjjjjjjjjjjZZZZZZZZZZZZZZZZZZZZZZZZZZZZZZZZEEjjjjjj EE    ZEEEEEEEEEZZZ",
"jjjjjjjjjjjjjjjjjjjjjjjjjjjjjjjjjjjjjjjjjjjjjjjjjjjjjEEjjjjjEE       ZZZZZZEEEEE",
"jjjjjjjjjjjjjjjjjjjjjjjjjjjjjjjjjjjjjjjjjjjjjjjjjjjjjjEjjxEEE        ZZZZZZEZZZZ",
"jjjjjjjjjjjjjjjjjjjjjjjjjjjjjjjjjjjjjjjjjjjjjjjjjjjjjjjEUxE          ZZZZZZEZZZZ",
"jjjjjjjjjjjjjjjjjjjjjjjjjj33jjjjjjjjjjjjjjjjjjjjjjjjjjjjzEE          ZZZZZEEZZZZ",
"jjjjjjjjjjjjjjjjjjjjjjjjjjA3333jjjjjjjjjjjjjjjjjjjjjjjjjjr EE       jZZZKEEZZZZZ",
"jjjjjjjjjjjjjjjjjjjjjjjjjjjAAA333jjjjjjjjjjjjjjjjjjjjjjjjr   EEE jjjjZZZKEZZZZZZ",
"jjjjjjjjjjjjjjjjjjjjjjjjjjjjjjAA333jjjjjjjjjjjjjjjjjjjjjy      EEEEjjZZZZZZZZZZZ",
"jjjjjjjjjjjjjjjjjjjjjjjjjjjjjjjjAA33jjjjjjjjjjjjjjjjjjj      jjjjjEEEEEEEEEEEEEE",
"jjjjjjjjjjjjjjjjjjjjjjjjjjjjjjjjllN36jjjjjjjjjjjjjjjjj#    rrjjjjjxxxHHHHHHHHHHH",
"jjjjjjjjjjjjjjjjjjjjjjjjjjjjjjjjjjkB35jjjjjjjjjjjjjjjO  oyyjjjjjjjjjjZZZZZZZZZZZ",
"jjjjjjjjjjjjjjjjjjjjjjjjjjjjjjjjjjjA33jjjjjjjjjjjjjjj   OjjjjjjjjjjjjZZZZZZZZZZZ",
"jjjjjjjjjjjjjjjjjjjjjjjjjjjjjjjjjjjjA3jjjjjjjjjjjjjjj  jjjjjjjjjjjjjjZZZZZZZZZZZ",
"jjjjjjjjjjjjjjjjjjjjjjjjjjjjjjjjjjjjA339jjjjjjjjjjjj  jjjjjjjjjjjjjjjZZZZZZZZZZZ",
"jjjjjjjjjjjjjjjjjjjjjjjjjjjjjjjjjjjjjA39jjjjjjjjjjjj jjjjjjjjjjjjjjjjZZZZZZZZZZZ",
"jjjjjjjjjjjjjjjjjjjjjjjjjjjjjjjjjjjjjA39jjjjjjjjjjj jjjjjjjjjjjjjjjjjZZZZZZZZZZZ",
"jjjjjjjjjjjjjjjjjjjjjjjjjjjjjjjjjjjjjA39jjjjjjjjjj  jjjjjjjjjjjjjjjjjZZZZZZZZZZZ",
"jjjjjjjjjjjjjjjjjjjjjjjjjjjjjjjjjjjjjA33qjjjjjjjj   jjjjjjjjjjjjjjjjjjVZZZZZZZZZ",
"jjjjjjjjjjjjjjjjjjjjjjjjjjjjjjjjjjjjjjAfqjjjjjjj   jjjjjjjjjjjjjjjjjjjVZZZZZZZZZ",
"jjjjjjjjjjjjjjjjjjjjjjjjjjjjjjjjjjjjjjAfqjjjjjj    jjjjjjjjjjjjjjjjjjjVZZZZZZZZZ",
"jjjjjjjjjjjjjjjjjjjjjjjjjjjjjjjjjjjjjjAfqjjjj    jjjjjjjjjjjjjjjjjjjjjVZZZZZZZZZ",
"jjjjjjjjjjjjjjjjjjjjjjjjjjjjjjjjjjjjjjAf33j   jjjjjjjjjjjjjjjjjjjjjjjjVZZZZZZZZZ",
"jjjjjjjjjjjjjjjjjjjjjjjjjjjjjjjjjjjjjjjva3j  jjjjjjjjjjjjjjjjjjjjjjjjjVZZZZZZZZZ",
"jjjjjjjjjjjjjjjjjjjjjjjjjjjjjjjjjjjjjjjva3  jjjjjjjjjjjjjjjjjjjjjjjjjjVZZZZZZZZZ",
"jjjjjjjjjjjjjjjjjjjjjjjjjjjjjjjjjjjjjjjva3 jjjjjjjjjjjjjjjjjjjjjjjjjjjVZZZZZZZZZ",
"jjjjjjjjjjjjjjjjjjjjjjjjjjjjjjjjjjjjjjjvw  jjjjjjjjjjjjjjjjjjjjjjjjjjjVZZZZZZZZZ",
"jjjjjjjjjjjjjjjjjjjjjjjjjjjjjjjjjjjjjjji< 3jjjjjjjjjjjjjjjjjjjjjjjjjjcCZZZZZZZZZ",
"jjjjjjjjjjjjjjjjjjjjjjjjjjjjjjjjjjjjjj3*  jjjjjjjjjjjjjjjjjjjjjjjjjjjZZZZZZZZZZZ",
"jjjjjjjjjjjjjjjjjjjjjjjjjjjjjjjjjjjjjj    jjjjjjjjjjjjjjjjjjjjjjjjjjjZZZZZZZZZZZ",
"jjjjjjjjjjjjjjjjjjjjjjjjjjjjjjjjjjjjj  3jjjjjjjjjjjjjjjjjjjjjjjjjjjjjZZZZZZZZZZZ",
"jjjjjjjjjjjjjjjjjjjjjjjjjjjjjjjjjjj   jjjjjjjjjjjjjjjjjjjjjjjjjjjjjjjZZZZZZZZZZZ",
"jjjjjjjjjjjjjjjjjjjjjjjjjjjjjjjjjj  jjjjjjjjjjjjjjjjjjjjjjjjjjjjjjjjjZZZZZZZZZZZ",
"jjjjjjjjjjjjjjjjjjjjjjjjjjjjjjjjj  jjjjjjjjjjjjjjjjjjjjjjjjjjjjjjjjjjZZZZZZZZZZZ",
"jjjjjjjjjjjjjjjjjjjjjjjjjjjjjjjj  2222jjjjjjjjjjjjjjjjjjjjjjjjjjjjjjjZZZZZZZZZZZ",
"jjjjjjjjjjjjjjjjjjjjjjjjjjjjjjjj AAAAA28jjjjjjjjjjjjjjjjjjjjjjjjjjjjjZZZZZZZZZZZ",
"jjjjjjjjh7777777jjjjjjjjjjjjjjj  jjjjjAd0jjjjjjjjjjjjjjjjjjjjjjjjjjjjZZZZZZZZZZZ",
"77777777777777777777jjjjjj777j  jjjjjjjvp22jjjjjjjjjjjjjjjjjjjjjjjjjjZZZZZZZZZZZ",
"7777777777777777777777777777   jjjjjjjjjbAA22222222jjjjjjjjjjjjjjjjjjZZZZZZZZZZZ",
"77777777777777777777777777    jjjjjjjjjjjjjAAAAAAAA2jjjjjjjjjjjjjjjjjZZZZZZZZZZZ",
"                             7jjjjjjjjjjjjjjjjjjjjA22jjjjjjjjjjjjjjjjZZZZZZZZZZZ",
"jjjjjjjjjjjjjjjjj            7jjjjjjjjjjjjjjjjjjjjjAAjjjjjjjjjjjjjjjZZZZZZZZZZZZ",
"jjjjjjjjjjjjjjjjjjjjjj#     77jjjjjjjjjjjjjjjjjjjjjjjjjjjjjjjjjjjjjjZZZZZZZZZZZZ",
"jjjjjjjjjjjjjjjjjjjjjj#     77jjjjjjjjjjjjjjjjjjjjjjjjjjjjjjjjjjjjjjZZZZZZZZZZZZ",
"jjjjjjjjjjjjjjjjjjjjjy@     77jjjjjjjjjjjjjjjjjjjjjjjjjjjjjjjjjjjjjjZZZZZZZZZZZZ",
"jjjjjjjjjjjjjjjjjjjjj    ## 77jjjjjjjjjjjjjjjjjjjjjjjjjjjjjjjjjjjjjjZZZZZZZZZZZZ",
"jjjjjjjjjjjjjjjjjjjjj    jj 77jjjjjjjjjjjjjjjjjjjjjjjjjjjjjjjjjjjjjjZZZZZZZZZZZZ",
"7777jjjjjjjjjjjjjjjj  rjjjj 77jjjjjjjjjjjjjjjjjjjjjjjjjjjjjjjjjjjjjjZZZZZZZZZZZZ",
"7777777tjjjjj777777  jjjjjj 7jjjjjjjjjjjjjjjjjjjjjjjjjjjjjjjjjjjjjjjZZZZZZZZZZZZ",
"777777777777777777  jjjjjjj 7jjjjjjjjjjjjjjjjjjjjjjjjjjjjjjjjjjjjjjjZZZZZZZZZZZZ",
"77777777777777777  7jjjjjjj 77jjjjjjjjjjjjjjjjjjjjjjjjjjjjjjjjjjjjjjZZZZZZZZZZZZ",
"777777777777777  7777jjjjjj 77jjjjjjjjjjjjjjjjjjjjjjjjjjjjjjjjjjjjjjZZZZZZZZZZZZ",
"7777777777777   7777jjjjjjj 77jjjjjjjjjjjjjjjjjjjjjjjjjjjjjjjjjjjjjjZZZZZZZZZZZZ",
"7777777777777  77777jjjjjjj 77jjjjjjjjjjjjjjjjjjjjjjjjjjjjjjjjjjjjjjZZZZZZZZZZZZ",
"777777777777  777777jjjjjjj 77jjjjjjjjjjjjjjjjjjjjjjjjjjjjjjjjjjjjjjZZZZZZZZZZZZ",
"77777777777  7M;7777jjjjjjj 77jjjjjjjjjjjjjjjjjjjjjjjjjjjjjjjjjjjjjjjZZZZZZZZZZZ",
"77777777777 777M;777jjjjjjj 77jjjjjjjjjjjjjjjjjjjjjjjjjjjjjjjjjjjjjjjZZZZZZZZZZZ",
"7722222221  777M;777jjjjjjj 77jjjjjjjjjjjjjjjjjjjjjjjjjjjjjjjjjjjjjjjZZZZZZZZZZZ",
"44222222>X 1477M;,,7jjjjjjj 77jjjjjjjjjjjjjjjjjjjjjjjjjjjjjjjjjjjjjjjZZZZZZZZZZZ",
"222222$$o.-2277usm;7jjjjjjj 77jjjjjjjjjjjjjjjjjjjjjjjjjjjjjjjjjjjjjjjZZZZZZZZZZZ",
"22222= +%&222777gne7jjjjjjj 77jjjjjjjjjjjjjjjjjjjjjjjjjjjjjjjjjjjjjjjZZZZZZZZZZZ",
"22222  =2222277777M7jjjjjjj 77jjjjjjjjjjjjjjjjjjjjjjjjjjjjjjjjjjjjjjjZZZZZZZZZZZ",
"2222  22222227777777jjjjjjj 77jjjjjjjjjjjjjjjjjjjjjjjjjjjjjjjjjjjjjjjZZZZZZZZZZZ",
"22   2222222277777777jjjjjj 77jjjjjjjjjjjjjjjjjjjjjjjjjjjjjjjjjjjjjjjZZZZZZZZZZZ",
"22   2222222277777777jjjjjj 77jjjjjjjjjjjjjjjjjjjjjjjjjjjjjjjjjjjjjjjZZZZZZZZZZZ",
":: :22222222277777777jjjjjj 77jjjjjjjjjjjjjjjjjjjjjjjjjjjjjjjjjjjjjjjZZZZZZZZZZZ",
":  :22222222277777777jjjjjj 777jjjjjjjjjjjjjjjjjjjjjjjjjjjjjjjjjjjjjjZZZZZZZZZZZ",
"   :22222222277777777jjjjjj 777jjjjjjjjjjjjjjjjjjjjjjjjjjjjjjjjjjjjjjZZZZZZZZZZZ"
};
