/* XPM */
static char *result[] = {
/* columns rows colors chars-per-pixel */
"80 80 77 1 ",
"  c black",
". c #050302",
"X c #060402",
"o c #0F0806",
"O c #100907",
"+ c #110907",
"@ c #110A07",
"# c #140B08",
"$ c #160C09",
"% c #1F110C",
"& c #22130E",
"* c #24140F",
"= c #26150F",
"- c #2F1B13",
"; c #301B13",
": c #301B14",
"> c #321C14",
", c #351E15",
"< c #2C211D",
"1 c #3E2319",
"2 c #45271C",
"3 c #46281D",
"4 c #48291D",
"5 c #4E2D20",
"6 c #502E21",
"7 c #643929",
"8 c #693B2B",
"9 c #6A3C2C",
"0 c #6B3C2C",
"q c #6B3D2C",
"w c #56413A",
"e c #5B4239",
"r c #7B4633",
"t c #7C4632",
"y c #7F4834",
"u c #724B3D",
"i c #754B3C",
"p c #7A5548",
"a c #7A5648",
"s c #73584E",
"d c #7C584A",
"f c #7D584B",
"g c #7D5A4D",
"h c #824935",
"j c #8F513B",
"k c #935742",
"l c #945843",
"z c #9C6551",
"x c #9E6956",
"c c #9F6A58",
"v c #A06B58",
"b c #A06C59",
"n c #8F7065",
"m c #8A756D",
"M c #927469",
"N c #A2796A",
"B c #A57B6C",
"V c #AD8171",
"C c #AE8373",
"Z c #B08576",
"A c #B18676",
"S c #B48C7E",
"D c #B58D7F",
"F c #673AB7",
"G c #B68F81",
"H c #B99385",
"J c #BB9689",
"K c #C9ABA1",
"L c #D6C0B9",
"P c #D8C3BB",
"I c #DAC5BF",
"U c #E6D9D4",
"Y c #F2EBE9",
"T c #F4EEEC",
"R c #F6F1EF",
"E c #F8F5F3",
"W c white",
/* pixels */
"FZZZZZZPUZZZZZWZZZZZZWJZZZZZZZZZZZZZZZZZZZZZZZZZZZZZZZZZZZZZZZZZZZZZZZZZZZZZZZZZ",
"WZZZZZZPUZZZZZWZZZZZZWJZZZZZZZZZZZZZZZZZZZZZZZZZZZZZZZZZZZZZZZZZZZZZZZZZZZZZZZZZ",
"WWWWWWWWUZZZZZWZZZZZZWJZZZZZZZZZZZZZZZZZZZZZZZZZZZZZZZZZZZZZZZZZZZZZZZZZZZZZZZZZ",
"ZWWZZZWWWWWWWWWZZZZZZWJZZZZZZZZZZZZZZZZZZZZZZZZZZZZZZZZZZZZZZZZZZZZZZZZZZZZZZZZZ",
"ZZZWZZWWUZZZZWWWWWZZZWJZZZZZZZZZZZZZZZZZZZZZZZZZZZZZZZZZZZZZZZZZZZZZZZZZZZZZZZZZ",
"WZZZWZWLZZZZZWZZZWWZZWJZZZZZZZZZZZZZZZZZZZZZZZZZZZZZZZZZZZZZZZZZZZZZZZZZZZZZZZZZ",
"WZZZWWWLZZZZZWZZZZWWZWJZZZZZZZZZZZZZZZZZZZZZZZZZZZZZZZZZZZZZZZZZZZZZZZZZZZZZZZZZ",
"WZZZLWWLZZZZZWZZZZLLZWJZZZZZZZZZZZZZZZZZZZZZZZZZZZZZZZZZZZZZZZZZZZZZZZZZZZZZZZZZ",
"WKZZZWWLZZZZZWZZZZZZZWJZZZZZZZZZZZZZZZZZZZZZZZZZZZZZZZZZZZZZZZZZZZZZZZZZZZZZZZZZ",
"EWZZGEWISZZZZWZZZZZZZWJZZZZZZZVVVVVVVVVCZZZZZZZZZZZZZZZZZZZZZZZZZZZZZZZZZZZZZZZZ",
"ZWZZWZWWUZZZZWZZZZZZZWJZZZZZZZjjjjjjjjjcZZZZZZZZZZZZZZZZZZZZZZZZZZZZZZZZZZZZZZZZ",
"ZWZWWZZPWEZZZW    jjjWxjjjjjjjjjjjjjjjjjjjjjjjjjjjjjjZZZZZZZZZZZZZZjjjjjjjjjjjjj",
"ZWWWZZZZKWWZWZ     jjWxjjjjjjjjjjjjjjjjjjjjjjjjjjjjjjjjjjjjjjjjjjjjjjjjjjjjjjjjj",
"ZZWWZZZZZGWZW      jWWxjjjjjjjjjjjjjjjjjjjjjjjjjjjjjjjjjjjjjjjjjjjjjjjjjjjjjjjjj",
"WWWZZZZZZZZWW      jWjjjjjjjjjjjjjjjjjjjjjjjjjjjjjjjjjjjjjjjjjjjjjjjjjjjjjjjjjjj",
"WZZWZZZZZZZWW       Wjjjjjjjjjjjjjjjjjjjjjjjjjjjjjjjjjjjjjjjjjjjjjjjjjjjjjjjjjjj",
"ZZZWZZZZZGWWW      WWjjjjjjjjjjjjjjjjjjjjjjjjjjjjjjjjjjjjjjjjjjjjjjjjjjjjjjjjjjj",
"ZZZWWZZZZGWZWW     W jjjjjjjjjjjjjjjjjjjjjjjjjjjjjjjjjjjjjjjjjjjjjjjjjjjjjjjjjjj",
"ZZZZWZZZKWWZZWW    W jjjjjjjjjjjjjjjjjjjjjjjjjjjjjjjjjjjjjjjjjjjjjjjjjjjjjjjjjjj",
"ZZZZWZZPWEZZZ WW  W   rjjjjjjjjjjjjjjjjjjjjjjjjjjjjjjjjjjjjjjjjjjjjjjjjjjjjjjjjj",
"ZZZZWZZPUZZZZjjW  W   rjjjjjjjjjjjjjjjjjjjjjjjjjjjjjjjjjjjjjjjjjjjjjjjjjjjjjjjjj",
"ZZZZWWWLZZZZZjjWWW     yjjjjjjjjjjjjjjjjjjjjjjjjjjjjjjjjjjjjjjjjjjjjjjjjjjjjjjjj",
"ZZZTWWJDZZZZZjjxxWrr   yjjjjjjjjjjjjjjjjjjjjjjjjjjjjjjjjjjjjjjjjjjjjjjjjjjjjjjjj",
"RRRHHWZZZZZZZjjjYzjjy  oOjjjjjjjjjjjjjjjjjjjjjjjjjjjjjjjjjjjjjjjjjjjjjjjjjjjjjjj",
"WWWZZWZZZZZZZjjjWjjjj    jjjjjjjjjjjjjjjjjjjjjjjjjjjjjjjjjjjjjjjjjjjjjjjjjjjjjjj",
"ZZZZZWWLZZZZZjWWjjjjjj#   jjjjjjjjjjjjjjjjjjjjjjjjjjjjjjjjjjjjjjjjjjjjjjjjjjjjjj",
"ZZZZZZWLZZZZZWWjjjjjjjjO   jjjjjjjjjjjjjjjjjjjjjjjjjjjjjjjjjjjjjjjjjjjjjjjjjjjjj",
"ZZZZZZWLZZZWWWjjjjjjjjjjjj  jjjjjjjjjjjjjjjjjjjjjjjj2Ajjjjjjjjjjjjjjjjjjjjjjjjjj",
"ZZZZZZZPWWWZZZjjjjjjjjjjjjjj   jjjjjjjjjjjjjjjjjjjj22Ajjjjjjjjjjjjjjjjjjjjjjjjjj",
"ZZZZZWWWUZZZZZjjjjjjjjjjjjjjj    jjjjjjjjjjjjjjjjj2AAjjjjjjjjjjjjjjjjjjjjjjjjjjj",
"ZZWWWZZZZZZZZZjjjjjjjjjjjjjjjj   jjjjjjjjjjjjjjjjj2Ajjjjjjjjjjjjjjjjjjjjjjjjjjjj",
"WWZZZZZZZZZZZZjjjjjjjjjjjjjjjjj   jjjjjjjjjjjjjjjj2Ajjjjjjjjjjjjjjjjjjjjjjjjjjjj",
"ZZZZZZZZZZZZZZjjjjjjjjjjjjjjjjjj  jjjjjjjjjjjjjjjj2Ajjjjjjjjjjjjjjjjjjjjjjjjjjjj",
"ZZZZZZZZZZZZZZjjjjjjjjjjjjjjjjjjj jjjjjjjjjjjjjjjj2Ajjjjjjjjjjjjjjjjjjjjjjjjjjjj",
"ZZZZZZZZZZZZZZjjjjjjjjjjjjjjjjjjj  jjjjjjjjjjjjjjj2Ajjjjjjjjjjjjjjjjjjjjjjjjjjjj",
"ZZZZZZZZZZZZZZjjjjjjjjjjjjjjjjjjjj  jjjjjjjjjjjjjj2Ajjjjjjjjjjjjjjjjjjjjjjjjjjjj",
"ZZZZZZZZZZZZZZjjjjjjjjjjjjjjjjjjjj   jjjjjjjjjjjjj2Ajjjjjjjjjjjjjjjjjjjjjjjjjjjj",
"ZZZZZZZZZZZZZZjjjjjjjjjjjjjjjjjjjjjj   3jjjjjjjjj2Ajjjjjjjjjjjjjjjjjjjjjjjjjjjjj",
"ZZZZZZZZZZZZZZjjjjjjjjjjjjjjjjjjjj3333    jjjjjjj2Ajjjjjjjjjjjjjjjjjjjjjjjjjjjjj",
"ZZZZZZZZZZZZZZjjjjjjjjjjjjjjjjqqqq3aaaw<  jjjjjj0pbjjjjjjjjjjjjjjjjjjjjjjjjjjjjj",
"ZZZZZZZZZZZZZZjjjjjjjjjjjj99993ffffvvvvi* 3jjjj8dvjjjjjjjjjjjjjjjjjjjjjjjjjjjjjj",
"ZZZZZZZZZZZZZZjjjjjjjjjjjj33333AAAAjjjjj3  jjjj2Ajjjjjjjjjjjjjjjjjjjjjjjjjjjjjjj",
"ZZZZZZZZZZZZZZjjjjjjjjj5333AAAAjjjjjjjjjjj  jj2Ajjjjjjjjjjjjjjjjjjjjjjjjjjjjjjjj",
"ZZZZZZZZZZZZZZjjjjjjjj633AAjjjjjjjjjjjjjjjj jj2Ajjjjjjjjjjjjjjjjjjjjjjjjjjjjjjjj",
"ZZZZZZZZZZZZZZjjjjjjj33BAjjjjjjjjjjjjjjjjjj  j2Ajjjjjjjjjjjjjjjjjjjjjjjjjjjjjjjj",
"ZZZZZZZZZZZZZZjjjjjj33Nkjjjjjjjjjjjjjjjjjjjj  2Ajjjjjjjjjjjjjjjjjjjjjjjjjjjjjjjj",
"ZZZZZZZZZZZZAZjjjjjj3Aljjjjjjjjjjjjjjjjjjjjjj  Ajjjjjjjjjjjjjjjjjjjjjjjjjjjjjjjj",
"ZZZZZZZZZZZZAZjjjjj33Aljjjjjjjjjjjjjjjjjjjjjjj   jjjjjjjjjjjjjjjjjjjjjjjjjjjjjjj",
"ZZZZZZZZZZZZAZjjjjj3Ajjjjjjjjjjjjjjjjjjjjjjjjjjj  jjjjjjjjjjjjjjjjjjjjjjjjjjjjjj",
"ZZZZZZZZZZZZAZjjjj33Ajjjjjjjjjjjjjjjjjjjjjjjjjjjj  jjjjjjjjjjjjjjjjjjjjjjjjjjj77",
"ZZZZZZZZZZZZAZjjjj3Ajjjjjjjjjjjjjjjjjjjjjjjjjjjjjj  77777777jj777777777777777777",
"ZZZZZZZZZZZZZZjjjj3Ajjjjjjjjjjjjjjjjjjjjjjjjjjjjj7    77777777777777777777777777",
"ZZZZZZZZZZZZZZjjj33Ajjjjjjjjjjjjjjjjjjjjjjjjjjjjj77                             ",
"ZZZZZZZZZZZZAZjjj3Ajjjjjjjjjjjjjjjjjjjjjjjjjjjjjj77      #jjjjjjjjjjjjjjjjjjjjjj",
"ZZZZZZZZZZZZAZjjjjjjjjjjjjjjjjjjjjjjjjjjjjjjjjjjjj77     #jjjjjjjjjjjjjjjjjjjjjj",
"ZZZZZZZZZZZZAZjjjjjjjjjjjjjjjjjjjjjjjjjjjjjjjjjjjj77       jjjjjjjjjjjjjjjjjjjjj",
"ZZZZZZZZZZZZAZjjjjjjjjjjjjjjjjjjjjjjjjjjjjjjjjjjjj77       jjjjjjjjjjjjjjjjjjjjj",
"ZZZZZZZZZZZZAZjjjjjjjjjjjjjjjjjjjjjjjjjjjjjjjjjjjj77  ##@  rjjjjjjjjjjjjjjjjjjjj",
"ZZZZZZZZZZZZAZjjjjjjjjjjjjjjjjjjjjjjjjjjjjjjjjjjjj77  jjy   jjjjjjjjjjjjjjjjjjjj",
"ZZZZZZZZZZZZZZjjjjjjjjjjjjjjjjjjjjjjjjjjjjjjjjjjjj77  jjjjj  jj7jjjjjjjjjjj77777",
"ZZZZZZZZZZZZZjjjjjjjjjjjjjjjjjjjjjjjjjjjjjjjjjjjj777  jjjjjj  777777777777777777",
"ZZZZZZZZZZZZZjjjjjjjjjjjjjjjjjjjjjjjjjjjjjjjjjjjj777  jjjjjj7  7777777,;eM777777",
"ZZZZZZZZZZZZZjjjjjjjjjjjjjjjjjjjjjjjjjjjjjjjjjjjj777  jjjjjj77 7777777,mn7777777",
"ZZZZZZZZZZZZZjjjjjjjjjjjjjjjjjjjjjjjjjjjjjjjjjjjj777 jjjjjjj777 7777;;;sg7777777",
"ZZZZZZZZZZZZZjjjjjjjjjjjjjjjjjjjjjjjjjjjjjjjjjjj7777 jjjjjjj777  77;MMMu77777777",
"ZZZZZZZZZZZZZjjjjjjjjjjjjjjjjjjjjjjjjjjjjjjjjjjj7777 jjjjjjj7777  7M777777777777",
"ZZZZZZZZZZZZZjjjjjjjjjjjjjjjjjjjjjjjjjjjjjjjjjjj7777 jjjjjjj7777   7777777777777",
"ZZZZZZZZZZZZZjjjjjjjjjjjjjjjjjjjjjjjjjjjjjjjjjjj7777 jjjjjjjj77777  774222222222",
"ZZZZZZZZZZZZZjjjjjjjjjjjjjjjjjjjjjjjjjjjjjjjjjjj7777 jjjjjjjj777777   1222222222",
"ZZZZZZZZZZZZjjjjjjjjjjjjjjjjjjjjjjjjjjjjjjjjjjjj7777 jjjjjjjj77777777  -22222222",
"ZZZZZZZZZZZZjjjjjjjjjjjjjjjjjjjjjjjjjjjjjjjjjjjj7777 jjjjjjjj777777771X.&2222222",
"ZZZZZZZZZZZZjjjjjjjjjjjjjjjjjjjjjjjjjjjjjjjjjjjjh777 jjjjjjjj777777772>o%2222222",
"ZZZZZZZZZZZZjjjjjjjjjjjjjjjjjjjjjjjjjjjjjjjjjjjjj777 jjjjjjjt7777777722$+=222222",
"ZZZZZZZZZZZZjjjjjjjjjjjjjjjjjjjjjjjjjjjjjjjjjjjjj777 jjjjjjj77777777722$  222222",
"ZZZZZZZZZZZjjjjjjjjjjjjjjjjjjjjjjjjjjjjjjjjjjjjjj777 jjjjjjj777777777222=  22222",
"ZZZZZZZZZZZjjjjjjjjjjjjjjjjjjjjjjjjjjjjjjjjjjjjjj777 jjjjjjj77777777722222   222",
"ZZZZZZZZZZZjjjjjjjjjjjjjjjjjjjjjjjjjjjjjjjjjjjjjj777 jjjjjj7777777777222222  :::",
"ZZZZZZZZZVjjjjjjjjjjjjjjjjjjjjjjjjjjjjjjjjjjjjjjj777 jjjjjj7777777777222222     ",
"ZZZZZZZZZVjjjjjjjjjjjjjjjjjjjjjjjjjjjjjjjjjjjjjjj777 jjjjjj777777777774222222:  ",
"ZZZZZZZZZVjjjjjjjjjjjjjjjjjjjjjjjjjjjjjjjjjjjjjjj777 jjjjjj777777777774222222:: "
};
