/* XPM */
static char *result[] = {
/* columns rows colors chars-per-pixel */
"80 80 77 1 ",
"  c black",
". c #050302",
"X c #060402",
"o c #0F0806",
"O c #100907",
"+ c #110907",
"@ c #110A07",
"# c #140B08",
"$ c #160C09",
"% c #1F110C",
"& c #22130E",
"* c #24140F",
"= c #26150F",
"- c #2F1B13",
"; c #301B13",
": c #301B14",
"> c #321C14",
", c #351E15",
"< c #2C211D",
"1 c #3E2319",
"2 c #45271C",
"3 c #46281D",
"4 c #48291D",
"5 c #4E2D20",
"6 c #502E21",
"7 c #643929",
"8 c #693B2B",
"9 c #6A3C2C",
"0 c #6B3C2C",
"q c #6B3D2C",
"w c #56413A",
"e c #5B4239",
"r c #7B4633",
"t c #7C4632",
"y c #7F4834",
"u c #724B3D",
"i c #754B3C",
"p c #7A5548",
"a c #7A5648",
"s c #73584E",
"d c #7C584A",
"f c #7D584B",
"g c #7D5A4D",
"h c #824935",
"j c #8F513B",
"k c #935742",
"l c #945843",
"z c #9C6551",
"x c #9E6956",
"c c #9F6A58",
"v c #A06B58",
"b c #A06C59",
"n c #8F7065",
"m c #8A756D",
"M c #927469",
"N c #A2796A",
"B c #A57B6C",
"V c #AD8171",
"C c #AE8373",
"Z c #B08576",
"A c #B18676",
"S c #B48C7E",
"D c #B58D7F",
"{ c #673AB7",
"F c #B68F81",
"G c #B99385",
"H c #BB9689",
"J c #C9ABA1",
"K c #D6C0B9",
"L c #D8C3BB",
"P c #DAC5BF",
"I c #E6D9D4",
"U c #F2EBE9",
"Y c #F4EEEC",
"T c #F6F1EF",
"R c #F8F5F3",
"E c white",
/* pixels */
"{ZZZZZZZZZZjjjjjjjjjjjjjjjjjjjjjjjjjjjjjjjjjjjjjj777 jjjjjj77777777222222222:   ",
"ZZZZZZZZZZZjjjjjjjjjjjjjjjjjjjjjjjjjjjjjjjjjjjjjj777 jjjjjj77777777222222222:  :",
"ZZZZZZZZZZZjjjjjjjjjjjjjjjjjjjjjjjjjjjjjjjjjjjjjjj77 jjjjjj77777777222222222: ::",
"ZZZZZZZZZZZjjjjjjjjjjjjjjjjjjjjjjjjjjjjjjjjjjjjjjj77 jjjjjj7777777722222222   22",
"ZZZZZZZZZZZjjjjjjjjjjjjjjjjjjjjjjjjjjjjjjjjjjjjjjj77 jjjjjj7777777722222222   22",
"ZZZZZZZZZZZjjjjjjjjjjjjjjjjjjjjjjjjjjjjjjjjjjjjjjj77 jjjjjjj77777772222222  2222",
"ZZZZZZZZZZZjjjjjjjjjjjjjjjjjjjjjjjjjjjjjjjjjjjjjjj77 jjjjjjj7M7777722222=  22222",
"ZZZZZZZZZZZjjjjjjjjjjjjjjjjjjjjjjjjjjjjjjjjjjjjjjj77 jjjjjjj7eng777222&%+ =22222",
"ZZZZZZZZZZZjjjjjjjjjjjjjjjjjjjjjjjjjjjjjjjjjjjjjjj77 jjjjjjj7;msu7722-.o$$222222",
"ZZZZZZZZZZZjjjjjjjjjjjjjjjjjjjjjjjjjjjjjjjjjjjjjjj77 jjjjjjj7,,;M7741 X>22222244",
"ZZZZZZZZZZZjjjjjjjjjjjjjjjjjjjjjjjjjjjjjjjjjjjjjjj77 jjjjjjj777;M777  1222222277",
"ZZZZZZZZZZZjjjjjjjjjjjjjjjjjjjjjjjjjjjjjjjjjjjjjjj77 jjjjjjj777;M777 77777777777",
"ZZZZZZZZZZZjjjjjjjjjjjjjjjjjjjjjjjjjjjjjjjjjjjjjjj77 jjjjjjj7777;M7  77777777777",
"ZZZZZZZZZZZZjjjjjjjjjjjjjjjjjjjjjjjjjjjjjjjjjjjjjj77 jjjjjjj777777  777777777777",
"ZZZZZZZZZZZZjjjjjjjjjjjjjjjjjjjjjjjjjjjjjjjjjjjjjj77 jjjjjjj77777  7777777777777",
"ZZZZZZZZZZZZjjjjjjjjjjjjjjjjjjjjjjjjjjjjjjjjjjjjjj77 jjjjjjj7777   7777777777777",
"ZZZZZZZZZZZZjjjjjjjjjjjjjjjjjjjjjjjjjjjjjjjjjjjjjj77 jjjjjj7777  777777777777777",
"ZZZZZZZZZZZZjjjjjjjjjjjjjjjjjjjjjjjjjjjjjjjjjjjjjj77 jjjjjjj7  77777777777777777",
"ZZZZZZZZZZZZjjjjjjjjjjjjjjjjjjjjjjjjjjjjjjjjjjjjjjj7 jjjjjjj  777777777777777777",
"ZZZZZZZZZZZZjjjjjjjjjjjjjjjjjjjjjjjjjjjjjjjjjjjjjjj7 jjjjjj  777777jjjjjt7777777",
"ZZZZZZZZZZZZjjjjjjjjjjjjjjjjjjjjjjjjjjjjjjjjjjjjjj77 jjjjr  jjjjjjjjjjjjjjjj7777",
"ZZZZZZZZZZZZjjjjjjjjjjjjjjjjjjjjjjjjjjjjjjjjjjjjjj77 jj    jjjjjjjjjjjjjjjjjjjjj",
"ZZZZZZZZZZZZjjjjjjjjjjjjjjjjjjjjjjjjjjjjjjjjjjjjjj77 ##    jjjjjjjjjjjjjjjjjjjjj",
"ZZZZZZZZZZZZjjjjjjjjjjjjjjjjjjjjjjjjjjjjjjjjjjjjjj77     @yjjjjjjjjjjjjjjjjjjjjj",
"ZZZZZZZZZZZZjjjjjjjjjjjjjjjjjjjjjjjjjjjjjjjjjjjjjj77     #jjjjjjjjjjjjjjjjjjjjjj",
"ZZZZZZZZZZZZjjjjjjjjjjjjjjjjjjjjjjjjjjjjjjjjjjjjjj77     #jjjjjjjjjjjjjjjjjjjjjj",
"ZZZZZZZZZZZZjjjjjjjjjjjjjjjAAjjjjjjjjjjjjjjjjjjjjj7            jjjjjjjjjjjjjjjjj",
"ZZZZZZZZZZZjjjjjjjjjjjjjjjj22Ajjjjjjjjjjjjjjjjjjjj7                             ",
"ZZZZZZZZZZZjjjjjjjjjjjjjjjjj2AAAAAAAAjjjjjjjjjjjjj    77777777777777777777777777",
"ZZZZZZZZZZZjjjjjjjjjjjjjjjjjj22222222AAbjjjjjjjjj   7777777777777777777777777777",
"ZZZZZZZZZZZjjjjjjjjjjjjjjjjjjjjjjjjjj22pvjjjjjjj  j777jjjjjj77777777777777777777",
"ZZZZZZZZZZZjjjjjjjjjjjjjjjjjjjjjjjjjjjj0dAjjjjj  jjjjjjjjjjjjjjj7777777hjjjjjjjj",
"ZZZZZZZZZZZjjjjjjjjjjjjjjjjjjjjjjjjjjjjj82AAAAA jjjjjjjjjjjjjjjjjjjjjjjjjjjjjjjj",
"ZZZZZZZZZZZjjjjjjjjjjjjjjjjjjjjjjjjjjjjjjj2222  jjjjjjjjjjjjjjjjjjjjjjjjjjjjjjjj",
"ZZZZZZZZZZZjjjjjjjjjjjjjjjjjjjjjjjjjjjjjjjjjj  jjjjjjjjjjjjjjjjjjjjjjjjjjjjjjjjj",
"ZZZZZZZZZZZjjjjjjjjjjjjjjjjjjjjjjjjjjjjjjjjj  jjjjjjjjjjjjjjjjjjjjjjjjjjjjjjjjjj",
"ZZZZZZZZZZZjjjjjjjjjjjjjjjjjjjjjjjjjjjjjjj   jjjjjjjjjjjjjjjjjjjjjjjjjjjjjjjjjjj",
"ZZZZZZZZZZZjjjjjjjjjjjjjjjjjjjjjjjjjjjjj3  jjjjjjjjjjjjjjjjjjjjjjjjjjjjjjjjjjjjj",
"ZZZZZZZZZZZjjjjjjjjjjjjjjjjjjjjjjjjjjj    jjjjjjjjjjjjjjjjjjjjjjjjjjjjjjjjjjjjjj",
"ZZZZZZZZZZZjjjjjjjjjjjjjjjjjjjjjjjjjjj  *3jjjjjjjjjjjjjjjjjjjjjjjjjjjjjjjjjjjjjj",
"ZZZZZZZZZCcjjjjjjjjjjjjjjjjjjjjjjjjjj3 <ijjjjjjjjjjjjjjjjjjjjjjjjjjjjjjjjjjjjjjj",
"ZZZZZZZZZVjjjjjjjjjjjjjjjjjjjjjjjjjjj  wvjjjjjjjjjjjjjjjjjjjjjjjjjjjjjjjjjjjjjjj",
"ZZZZZZZZZVjjjjjjjjjjjjjjjjjjjjjjjjjjj 3avjjjjjjjjjjjjjjjjjjjjjjjjjjjjjjjjjjjjjjj",
"ZZZZZZZZZVjjjjjjjjjjjjjjjjjjjjjjjjjj  3avjjjjjjjjjjjjjjjjjjjjjjjjjjjjjjjjjjjjjjj",
"ZZZZZZZZZVjjjjjjjjjjjjjjjjjjjjjjjjj  j3avjjjjjjjjjjjjjjjjjjjjjjjjjjjjjjjjjjjjjjj",
"ZZZZZZZZZVjjjjjjjjjjjjjjjjjjjjjjjj   j33fAjjjjjjjjjjjjjjjjjjjjjjjjjjjjjjjjjjjjjj",
"ZZZZZZZZZVjjjjjjjjjjjjjjjjjjjjj    jjjjqfAjjjjjjjjjjjjjjjjjjjjjjjjjjjjjjjjjjjjjj",
"ZZZZZZZZZVjjjjjjjjjjjjjjjjjjj    jjjjjjqfAjjjjjjjjjjjjjjjjjjjjjjjjjjjjjjjjjjjjjj",
"ZZZZZZZZZVjjjjjjjjjjjjjjjjjjj   jjjjjjjqfAjjjjjjjjjjjjjjjjjjjjjjjjjjjjjjjjjjjjjj",
"ZZZZZZZZZVjjjjjjjjjjjjjjjjjj   jjjjjjjjq33Ajjjjjjjjjjjjjjjjjjjjjjjjjjjjjjjjjjjjj",
"ZZZZZZZZZZZjjjjjjjjjjjjjjjjj  jjjjjjjjjj93Ajjjjjjjjjjjjjjjjjjjjjjjjjjjjjjjjjjjjj",
"ZZZZZZZZZZZjjjjjjjjjjjjjjjjj jjjjjjjjjjj93Ajjjjjjjjjjjjjjjjjjjjjjjjjjjjjjjjjjjjj",
"ZZZZZZZZZZZjjjjjjjjjjjjjjjj jjjjjjjjjjjj93Ajjjjjjjjjjjjjjjjjjjjjjjjjjjjjjjjjjjjj",
"ZZZZZZZZZZZjjjjjjjjjjjjjjj  jjjjjjjjjjjj933Ajjjjjjjjjjjjjjjjjjjjjjjjjjjjjjjjjjjj",
"ZZZZZZZZZZZjjjjjjjjjjjjjj  jjjjjjjjjjjjjjj3Ajjjjjjjjjjjjjjjjjjjjjjjjjjjjjjjjjjjj",
"ZZZZZZZZZZZjjjjjjjjjjjjO   jjjjjjjjjjjjjjj33Ajjjjjjjjjjjjjjjjjjjjjjjjjjjjjjjjjjj",
"ZZZZZZZZZZZjjjjjjjjjjyyo  Ojjjjjjjjjjjjjjj53Bkjjjjjjjjjjjjjjjjjjjjjjjjjjjjjjjjjj",
"HHHHHHHHHHHxxxjjjjjrr    #jjjjjjjjjjjjjjjjj63Nlljjjjjjjjjjjjjjjjjjjjjjjjjjjjjjjj",
"EEEEEEEEEEEEEEjjjjj      jjjjjjjjjjjjjjjjjjj33AAjjjjjjjjjjjjjjjjjjjjjjjjjjjjjjjj",
"ZZZZZZZZZZZjjEEEE      yjjjjjjjjjjjjjjjjjjjjj333AAjjjjjjjjjjjjjjjjjjjjjjjjjjjjjj",
"ZZZZZZEKZZZjjjj EEE   rjjjjjjjjjjjjjjjjjjjjjjjj333AAAjjjjjjjjjjjjjjjjjjjjjjjjjjj",
"ZZZZZEEKZZZj       EE rjjjjjjjjjjjjjjjjjjjjjjjjjj3333Ajjjjjjjjjjjjjjjjjjjjjjjjjj",
"ZZZZEEZZZZZ          EEzjjjjjjjjjjjjjjjjjjjjjjjjjjjj33jjjjjjjjjjjjjjjjjjjjjjjjjj",
"ZZZZEZZZZZZ          ExUEjjjjjjjjjjjjjjjjjjjjjjjjjjjjjjjjjjjjjjjjjjjjjjjjjjjjjjj",
"ZZZZEZZZZZZ        EEExjjEjjjjjjjjjjjjjjjjjjjjjjjjjjjjjjjjjjjjjjjjjjjjjjjjjjjjjj",
"EEEEEZZZZZZ       EEjjjjjEEjjjjjjjjjjjjjjjjjjjjjjjjjjjjjjjjjjjjjjjjjjjjjjjjjjjjj",
"ZZZEEEEEEEEEZ    EE jjjjjjEEZZZZZZZZZZZZZZZZZZZZZZZZZZZZZZZZjjjjjjjjjjjjjjjjjjjj",
"ZZZEZZZZZZZZEEEEEEZZZZZZZZZEZZZZZZZZZZZZZZZZZZAAAAAZZAAAAAAZZZZZZZZZZjjjjjjjjjjj",
"ZZZEZZZZZZZZZZEEEZZZZZZZZZZEZZZZZZZZZZZZZZZZZZZZZZZZZZZZZZZZZZZZZZZZZZZZZZjjjjjj",
"ZZZEZZZZZZZZEEZZEEEZZZZZZZZZEZZZZZZZZZZZZZZZZZZZZZZZZZZZZZZZZZZZZZZZZZZZZZZZZjjj",
"ZZZEZZZZZZZREFZZFFERZZZZZZZZEZZZZZZZZZZZZZZZZZZZZZZZZZZZZZZZZZZZZZZZZZZZZZZZZVVV",
"IIIEIZZZZSIEJZZZZZJEIZZZZZZZEIZZZZZZZZZZZZZZZZZZZZZZZZZZZZZZZZZZZZZZZZZZZZZZZZZZ",
"LLEEEKKKKPELZZZZZZZLLKDZZKKKLEZZZZZZZZZZZZZZZZZZZZZZZZZZZZZZZZZZZZZZZZZZZZZZZZZZ",
"ZZEEEEEEEEEZZZZZZZZZZEHZZEEEZEZZZZZZZZZZZZZZZZZZZZZZZZZZZZZZZZZZZZZZZZZZZZZZZZZZ",
"ZZEZZZEEERZZZZZZZZZZZEEEEEZZZEZZZZZZZZZZZZZZZZZZZZZZZZZZZZZZZZZZZZZZZZZZZZZZZZZZ",
"ZZEZZEEKZFEEZZZZZEEEEEEGZZZZZZEZZZZZZZZZZZZZZZZZZZZZZZZZZZZZZZZZZZZZZZZZZZZZZZZZ",
"ZZEZEZZZZZZEEEZEEEZZZZYGZZZZZZEZZZZZZZZZZZZZZZZZZZZZZZZZZZZZZZZZZZZZZZZZZZZZZZZZ",
"ZZEEZZZZZZZZEEEZZZZZZZZTEZZZZZEZZZZZZZZZZZZZZZZZZZZZZZZZZZZZZZZZZZZZZZZZZZZZZZZZ",
"ZZEEZZZZJEEEEZEZZZZZZZZTEZZZZZZEZZZZZZZZZZZZZZZZZZZZZZZZZZZZZZZZZZZZZZZZZZZZZZZZ",
"ZEEZZEEEERZZZZEEZZZZZZZTEZZZZZZEZZZZZZZZZZZZZZZZZZZZZZZZZZZZZZZZZZZZZZZZZZZZZZZZ"
};
