/* XPM */
static char *result[] = {
/* columns rows colors chars-per-pixel */
"80 80 11 1 ",
"  c black",
". c #B28705",
"X c #FF9800",
"o c #FFC107",
"O c #AA00FF",
"+ c #C34DFF",
"@ c #FFE085",
"# c #FFE186",
"$ c #D582FF",
"% c #E1A7FF",
"& c None",
/* pixels */
"&&&&&&&&&&&&&&&&&&&&&&&&&&&&&&&&&&&&&&&&&&&&&&&&&&&&&&&&&&&&&&&&&&&&&&&&&&&&&&&&",
"&&&&&&&&&&&&&&&&&&&&&&&&&&&&&&&&&&&&&&&&&&&&&&&&&&&&&&&&&&&&&&&&&&&&&&&&&&&&&&&&",
"&&&&&&&&&&&&&&&&&&&&&&&&&&&&&&&&&&&&&&&&&&&&&&&&&&&&&&&&&&&&&&&&&&&&&&&&&&&&&&&&",
"&&&&&&&&&&&&&&&&&&&&&&&&&&&&&&&&&&&&&&&&&&&&&&&&&&&&&&&&&&&&&&&&&&&&&&&&&&&&&&&&",
"&&&&&&&&&&&&&&&&&&&&&&&&&&&&&&&&&&&&&&&&&&&&&&&&&&&&&&&&&&&&&&&&&&&&&&&&&&&&&&&&",
"&&&&&&&&&&&&&&&&&&&&&&&&&&&&&&&&&&&&&&&&&&&&&&&&&&&&&&&&&&&&&&&&&&&&&&&&&&&&&&&&",
"&&&&&&&&&&&&&&&&&&&&&&&&&&&&&&&&&&&&&&&&&&&&&&&&&&&&&&&&&&&&&&&&&&&&&&&&&&&&&&&&",
"&&&&&&&&&&&&&&&&&&&&&&&&&&&&&&&&&&&&&&&&&&&&&&&&&&&&&&&&&&&&&&&&&&&&&&&&&&&&&&&&",
"&&&&&&&&&&&&&&&&&&&&&&&&&&&&&&&&&&&&&&&&&&&&&&&&&&&&&&&&&&&&&&&&&&&&&&&&&&&&&&&&",
"&&&&&&&&&&&&&&&&&&&&&&&&&&&&&&&&&&&&&&&&&&&&&&&&&&&&&&&&&&&&&&&&&&&&&&&&&&&&&&&&",
"&&&&&&&&&&&&&&&&&&&&&&&&&&&&&&&&&&&&&&&&&&&&&&&&&&&&&&&&&&&&&&&&&&&&&&&&&&&&&&&&",
"&&&&&&&&&&&&&&&&&&&&&&&&&&&&&&&&&&&&&&&&&&&&&&&&&&&&&&&&&&&&&&&&&&&&&&&&&&&&&&&&",
"&&&&&&&&&&&&&&&&&&&&&&&&&&&&&&&&&&&&&&&&&&&&&&&&&&&&&&&&&&&&&&&&&&&&&&&&&&&&&&&&",
"&&&&&&&&&&&&&&&&&&&&&&&&&&&&&&&&&&&&&&&&&&&&&&&&&&&&&&&&&&&&&&&&&&&&&&&&&&&&&&&&",
"&&&&&&&&&&&&&&&&&&&&&&&&&&&&&&&&&&            &&&&&&&&&&&&&&&&&&&&&&&&&&&&&&&&&&",
"&&&&&&&&&&&&&&&&&&&&&&&&&&&&&&&&&&            &&&&&&&&&&&&&&&&&&&&&&&&&&&&&&&&&&",
"&&&&&&&&&&&&&&&&&&&&&&&&&&&&&&    oooooo@@@@##    &&&&&&&&&&&&&&&&&&&&&&&&&&&&&&",
"&&&&&&&&&&&&&&&&&&&&&&&&&&&&&&    oooooo@@@@##    &&&&&&&&&&&&&&&&&&&&&&&&&&&&&&",
"&&&&&&&&&&&&&&&&&&&&&&&&&&    oooooooo@@@@@@@@@@oo    &&&&&&&&&&&&&&&&&&&&&&&&&&",
"&&&&&&&&&&&&&&&&&&&&&&&&&&    oooooooo@@@@@@@@@@oo    &&&&&&&&&&&&&&&&&&&&&&&&&&",
"&&&&&&&&&&&&&&&&&&&&&&&&  oooooooooo@@@@@@@@##oooooooo  &&&&&&&&&&&&&&&&&&&&&&&&",
"&&&&&&&&&&&&&&&&&&&&&&&&  oooooooooo@@@@@@@@##oooooooo  &&&&&&&&&&&&&&&&&&&&&&&&",
"&&&&&&&&&&&&&&&&&&&&&&  oooooooo@@@@@@@@@@XXoooooooooooo  &&&&&&&&&&&&&&&&&&&&&&",
"&&&&&&&&&&&&&&&&&&&&&&  oooooooo@@@@@@@@@@XXoooooooooooo  &&&&&&&&&&&&&&&&&&&&&&",
"&&&&&&&&&&&&&&&&&&&&&&oooooooo@@@@@@@@@@ooooXXXXoooooooooo&&&&&&&&&&&&&&&&&&&&&&",
"&&&&&&&&&&&&&&&&&&&&&&oooooooo@@@@@@@@@@ooooXXXXoooooooooo&&&&&&&&&&&&&&&&&&&&&&",
"&&&&&&&&&&&&&&&&&&&&&&oooooooo@@@@@@##ooooooooooXXoooooooo&&&&&&&&&&&&&&&&&&&&&&",
"&&&&&&&&&&&&&&&&&&&&&&oooooooo@@@@@@##ooooooooooXXoooooooo&&&&&&&&&&&&&&&&&&&&&&",
"&&&&&&&&&&&&&&&&&&&&  oooooo@@@@@@##ooooooooooooXXoooooooo  &&&&&&&&&&&&&&&&&&&&",
"&&&&&&&&&&&&&&&&&&&&  oooooo@@@@@@##ooooooooooooXXoooooooo  &&&&&&&&&&&&&&&&&&&&",
"&&&&&&&&&&&&&&&&&&&&  oooo@@@@@@##ooooooooooooooooXXoooooo  &&&&&&&&&&&&&&&&&&&&",
"&&&&&&&&&&&&&&&&&&&&  oooo@@@@@@##ooooooooooooooooXXoooooo  &&&&&&&&&&&&&&&&&&&&",
"&&&&&&&&&&&&&&&&&&  oooo@@@@@@@@ooooooooooooooooooXXoooooo..  &&&&&&&&&&&&&&&&&&",
"&&&&&&&&&&&&&&&&&&  oooo@@@@@@@@ooooooooooooooooooXXoooooo..  &&&&&&&&&&&&&&&&&&",
"&&&&&&&&&&&&&&&&&&  @@@@@@@@@@oooo  oooooooo  ..ooooXXoooo..  &&&&&&&&&&&&&&&&&&",
"&&&&&&&&&&&&&&&&&&  @@@@@@@@@@oooo  oooooooo  ..ooooXXoooo..  &&&&&&&&&&&&&&&&&&",
"&&&&&&&&&&&&&&&&&&  @@@@@@@@oooooo  $$    %%  ..ooooXXoooo..  &&&&&&&&&&&&&&&&&&",
"&&&&&&&&&&&&&&&&&&  @@@@@@@@oooooo  $$    %%  ..ooooXXoooo..  &&&&&&&&&&&&&&&&&&",
"&&&&&&&&&&&&&&&&&&  @@@@@@@@oooooooo  ++++  ..ooooooXXoooo..  &&&&&&&&&&&&&&&&&&",
"&&&&&&&&&&&&&&&&&&  @@@@@@@@oooooooo  ++++  ..ooooooXXoooo..  &&&&&&&&&&&&&&&&&&",
"&&&&&&&&&&&&&&&&&&  @@@@@@XXoooooooooo    ..ooooooooXXoooo..  &&&&&&&&&&&&&&&&&&",
"&&&&&&&&&&&&&&&&&&  @@@@@@XXoooooooooo    ..ooooooooXXoooo..  &&&&&&&&&&&&&&&&&&",
"&&&&&&&&&&&&&&&&&&  @@@@ooXXooooooooooOOOOooooooooooXXoooo..  &&&&&&&&&&&&&&&&&&",
"&&&&&&&&&&&&&&&&&&  @@@@ooXXooooooooooOOOOooooooooooXXoooo..  &&&&&&&&&&&&&&&&&&",
"&&&&&&&&&&&&&&&&&&  @@@@ooooXXoooooooooo..ooooooooXXoooooo..  &&&&&&&&&&&&&&&&&&",
"&&&&&&&&&&&&&&&&&&  @@@@ooooXXoooooooooo..ooooooooXXoooooo..  &&&&&&&&&&&&&&&&&&",
"&&&&&&&&&&&&&&&&&&&&  ooooooXXooooooooooooooooooooXXoooooo  &&&&&&&&&&&&&&&&&&&&",
"&&&&&&&&&&&&&&&&&&&&  ooooooXXooooooooooooooooooooXXoooooo  &&&&&&&&&&&&&&&&&&&&",
"&&&&&&&&&&&&&&&&&&&&  ooooooooXXooooooooooooooooXXoooooo..  &&&&&&&&&&&&&&&&&&&&",
"&&&&&&&&&&&&&&&&&&&&  ooooooooXXooooooooooooooooXXoooooo..  &&&&&&&&&&&&&&&&&&&&",
"&&&&&&&&&&&&&&&&&&&&&&ooooooooXXooooooooooooooooXXoooooo..&&&&&&&&&&&&&&&&&&&&&&",
"&&&&&&&&&&&&&&&&&&&&&&ooooooooXXooooooooooooooooXXoooooo..&&&&&&&&&&&&&&&&&&&&&&",
"&&&&&&&&&&&&&&&&&&&&&&ooooooooooXXXXooooooooXXXXoooooo....&&&&&&&&&&&&&&&&&&&&&&",
"&&&&&&&&&&&&&&&&&&&&&&ooooooooooXXXXooooooooXXXXoooooo....&&&&&&&&&&&&&&&&&&&&&&",
"&&&&&&&&&&&&&&&&&&&&&&  ooooooooooooXXXXXXXXoooooooo....  &&&&&&&&&&&&&&&&&&&&&&",
"&&&&&&&&&&&&&&&&&&&&&&  ooooooooooooXXXXXXXXoooooooo....  &&&&&&&&&&&&&&&&&&&&&&",
"&&&&&&&&&&&&&&&&&&&&&&&&  oooooooooooooooooooooo......  &&&&&&&&&&&&&&&&&&&&&&&&",
"&&&&&&&&&&&&&&&&&&&&&&&&  oooooooooooooooooooooo......  &&&&&&&&&&&&&&&&&&&&&&&&",
"&&&&&&&&&&&&&&&&&&&&&&&&&&    oooooooooooooo......    &&&&&&&&&&&&&&&&&&&&&&&&&&",
"&&&&&&&&&&&&&&&&&&&&&&&&&&    oooooooooooooo......    &&&&&&&&&&&&&&&&&&&&&&&&&&",
"&&&&&&&&&&&&&&&&&&&&&&&&&&&&&&    oooooooooooo    &&&&&&&&&&&&&&&&&&&&&&&&&&&&&&",
"&&&&&&&&&&&&&&&&&&&&&&&&&&&&&&    oooooooooooo    &&&&&&&&&&&&&&&&&&&&&&&&&&&&&&",
"&&&&&&&&&&&&&&&&&&&&&&&&&&&&&&&&&&            &&&&&&&&&&&&&&&&&&&&&&&&&&&&&&&&&&",
"&&&&&&&&&&&&&&&&&&&&&&&&&&&&&&&&&&            &&&&&&&&&&&&&&&&&&&&&&&&&&&&&&&&&&",
"&&&&&&&&&&&&&&&&&&&&&&&&&&&&&&&&&&&&&&&&&&&&&&&&&&&&&&&&&&&&&&&&&&&&&&&&&&&&&&&&",
"&&&&&&&&&&&&&&&&&&&&&&&&&&&&&&&&&&&&&&&&&&&&&&&&&&&&&&&&&&&&&&&&&&&&&&&&&&&&&&&&",
"&&&&&&&&&&&&&&&&&&&&&&&&&&&&&&&&&&&&&&&&&&&&&&&&&&&&&&&&&&&&&&&&&&&&&&&&&&&&&&&&",
"&&&&&&&&&&&&&&&&&&&&&&&&&&&&&&&&&&&&&&&&&&&&&&&&&&&&&&&&&&&&&&&&&&&&&&&&&&&&&&&&",
"&&&&&&&&&&&&&&&&&&&&&&&&&&&&&&&&&&&&&&&&&&&&&&&&&&&&&&&&&&&&&&&&&&&&&&&&&&&&&&&&",
"&&&&&&&&&&&&&&&&&&&&&&&&&&&&&&&&&&&&&&&&&&&&&&&&&&&&&&&&&&&&&&&&&&&&&&&&&&&&&&&&",
"&&&&&&&&&&&&&&&&&&&&&&&&&&&&&&&&&&&&&&&&&&&&&&&&&&&&&&&&&&&&&&&&&&&&&&&&&&&&&&&&",
"&&&&&&&&&&&&&&&&&&&&&&&&&&&&&&&&&&&&&&&&&&&&&&&&&&&&&&&&&&&&&&&&&&&&&&&&&&&&&&&&",
"&&&&&&&&&&&&&&&&&&&&&&&&&&&&&&&&&&&&&&&&&&&&&&&&&&&&&&&&&&&&&&&&&&&&&&&&&&&&&&&&",
"&&&&&&&&&&&&&&&&&&&&&&&&&&&&&&&&&&&&&&&&&&&&&&&&&&&&&&&&&&&&&&&&&&&&&&&&&&&&&&&&",
"&&&&&&&&&&&&&&&&&&&&&&&&&&&&&&&&&&&&&&&&&&&&&&&&&&&&&&&&&&&&&&&&&&&&&&&&&&&&&&&&",
"&&&&&&&&&&&&&&&&&&&&&&&&&&&&&&&&&&&&&&&&&&&&&&&&&&&&&&&&&&&&&&&&&&&&&&&&&&&&&&&&",
"&&&&&&&&&&&&&&&&&&&&&&&&&&&&&&&&&&&&&&&&&&&&&&&&&&&&&&&&&&&&&&&&&&&&&&&&&&&&&&&&",
"&&&&&&&&&&&&&&&&&&&&&&&&&&&&&&&&&&&&&&&&&&&&&&&&&&&&&&&&&&&&&&&&&&&&&&&&&&&&&&&&",
"&&&&&&&&&&&&&&&&&&&&&&&&&&&&&&&&&&&&&&&&&&&&&&&&&&&&&&&&&&&&&&&&&&&&&&&&&&&&&&&&",
"&&&&&&&&&&&&&&&&&&&&&&&&&&&&&&&&&&&&&&&&&&&&&&&&&&&&&&&&&&&&&&&&&&&&&&&&&&&&&&&&"
};
