/* XPM */
static char *result[] = {
/* columns rows colors chars-per-pixel */
"80 80 6 1 ",
"  c black",
". c #B28705",
"X c #FF9800",
"o c #FFC107",
"O c #FFE085",
"+ c None",
/* pixels */
"++++++++++++++++++++++++++++++++++++++++++++++++++++++++++++++++++++++++++++++++",
"++++++++++++++++++++++++++++++++++++++++++++++++++++++++++++++++++++++++++++++++",
"++++++++++++++++++++++++++++++++++++++++++++++++++++++++++++++++++++++++++++++++",
"++++++++++++++++++++++++++++++++++++++++++++++++++++++++++++++++++++++++++++++++",
"++++++++++++++++++++++++++++++++++++++++++++++++++++++++++++++++++++++++++++++++",
"++++++++++++++++++++++++++++++++++++++++++++++++++++++++++++++++++++++++++++++++",
"++++++++++++++++++++++++++++++++++++++++++++++++++++++++++++++++++++++++++++++++",
"++++++++++++++++++++++++++++++++++++++++++++++++++++++++++++++++++++++++++++++++",
"++++++++++++++++++++++++++++++++++++++++++++++++++++++++++++++++++++++++++++++++",
"++++++++++++++++++++++++++++++++++++++++++++++++++++++++++++++++++++++++++++++++",
"++++++++++++++++++++++++++++++++++++++++++++++++++++++++++++++++++++++++++++++++",
"++++++++++++++++++++++++++++++++++++++++++++++++++++++++++++++++++++++++++++++++",
"++++++++++++++++++++++++++++++++++++++++++++++++++++++++++++++++++++++++++++++++",
"++++++++++++++++++++++++++++++++++++++++++++++++++++++++++++++++++++++++++++++++",
"++++++++++++++++++++++++++++++++++++          ++++++++++++++++++++++++++++++++++",
"++++++++++++++++++++++++++++++++++++          ++++++++++++++++++++++++++++++++++",
"++++++++++++++++++++++++++++++++++  oooooooooo    ++++++++++++++++++++++++++++++",
"++++++++++++++++++++++++++++++++++  oooooooooo    ++++++++++++++++++++++++++++++",
"++++++++++++++++++++++++++++++    oooooooooooooooo    ++++++++++++++++++++++++++",
"++++++++++++++++++++++++++++++    oooooooooooooooo    ++++++++++++++++++++++++++",
"++++++++++++++++++++++++++++  ooooooooooooooooooooOOOO++++++++++++++++++++++++++",
"++++++++++++++++++++++++++++  ooooooooooooooooooooOOOO++++++++++++++++++++++++++",
"++++++++++++++++++++++++++++ooooooooooXXXXXXXXooOOOOOO  ++++++++++++++++++++++++",
"++++++++++++++++++++++++++++ooooooooooXXXXXXXXooOOOOOO  ++++++++++++++++++++++++",
"++++++++++++++++++++++++++++ooooooooXXooooooooOOOOOOOOOO++++++++++++++++++++++++",
"++++++++++++++++++++++++++++ooooooooXXooooooooOOOOOOOOOO++++++++++++++++++++++++",
"++++++++++++++++++++++++++++ooooooXXooooooooooOOOOOOOOoo++++++++++++++++++++++++",
"++++++++++++++++++++++++++++ooooooXXooooooooooOOOOOOOOoo++++++++++++++++++++++++",
"++++++++++++++++++++++++++  ooooooXXooooooooOOOOOOOOOOoo  ++++++++++++++++++++++",
"++++++++++++++++++++++++++  ooooooXXooooooooOOOOOOOOOOoo  ++++++++++++++++++++++",
"++++++++++++++++++++++++++  ooooXXooooooooOOOOOOOOOOOOoo  ++++++++++++++++++++++",
"++++++++++++++++++++++++++  ooooXXooooooooOOOOOOOOOOOOoo  ++++++++++++++++++++++",
"++++++++++++++++++++++++  ooooooXXooooooOOOOOOOOOOOOoooo..  ++++++++++++++++++++",
"++++++++++++++++++++++++  ooooooXXooooooOOOOOOOOOOOOoooo..  ++++++++++++++++++++",
"++++++++++++++++++++++++  ooooXXoooo  OOOOOOOOOOOOooXXoo..  ++++++++++++++++++++",
"++++++++++++++++++++++++  ooooXXoooo  OOOOOOOOOOOOooXXoo..  ++++++++++++++++++++",
"++++++++++++++++++++++++  ooooXXoooo  OOOOOOOOOOooooXXoo..  ++++++++++++++++++++",
"++++++++++++++++++++++++  ooooXXoooo  OOOOOOOOOOooooXXoo..  ++++++++++++++++++++",
"++++++++++++++++++++++++  ooooXXooooOOOOOOOOOOOOooooXXoo..  ++++++++++++++++++++",
"++++++++++++++++++++++++  ooooXXooooOOOOOOOOOOOOooooXXoo..  ++++++++++++++++++++",
"++++++++++++++++++++++++  ooooXXooooOOOOOOOOOOooooooXXoo..  ++++++++++++++++++++",
"++++++++++++++++++++++++  ooooXXooooOOOOOOOOOOooooooXXoo..  ++++++++++++++++++++",
"++++++++++++++++++++++++  ooooXXooOOOOOOOOOOOOooooooXXoo..  ++++++++++++++++++++",
"++++++++++++++++++++++++  ooooXXooOOOOOOOOOOOOooooooXXoo..  ++++++++++++++++++++",
"++++++++++++++++++++++++  ooooooOOOOOOOOOOOOooooooXXoooo..  ++++++++++++++++++++",
"++++++++++++++++++++++++  ooooooOOOOOOOOOOOOooooooXXoooo..  ++++++++++++++++++++",
"++++++++++++++++++++++++++  ooOOOOOOOOOOOOOOooooooXXoooo  ++++++++++++++++++++++",
"++++++++++++++++++++++++++  ooOOOOOOOOOOOOOOooooooXXoooo  ++++++++++++++++++++++",
"++++++++++++++++++++++++++  OOOOOOOOOOOOOOooooooXXoooo..  ++++++++++++++++++++++",
"++++++++++++++++++++++++++  OOOOOOOOOOOOOOooooooXXoooo..  ++++++++++++++++++++++",
"++++++++++++++++++++++++++++OOOOOOOOOOOOooooooooXXoooo..++++++++++++++++++++++++",
"++++++++++++++++++++++++++++OOOOOOOOOOOOooooooooXXoooo..++++++++++++++++++++++++",
"++++++++++++++++++++++++++++OOOOOOOOOOooooooooXXoooooo..++++++++++++++++++++++++",
"++++++++++++++++++++++++++++OOOOOOOOOOooooooooXXoooooo..++++++++++++++++++++++++",
"++++++++++++++++++++++++++++OOOOOOOOOOXXXXXXXXoooooo..  ++++++++++++++++++++++++",
"++++++++++++++++++++++++++++OOOOOOOOOOXXXXXXXXoooooo..  ++++++++++++++++++++++++",
"++++++++++++++++++++++++++++  OOOOOOoooooooooooo......++++++++++++++++++++++++++",
"++++++++++++++++++++++++++++  OOOOOOoooooooooooo......++++++++++++++++++++++++++",
"++++++++++++++++++++++++++++++    OOoooooooooo....    ++++++++++++++++++++++++++",
"++++++++++++++++++++++++++++++    OOoooooooooo....    ++++++++++++++++++++++++++",
"++++++++++++++++++++++++++++++++++  oooooooooo    ++++++++++++++++++++++++++++++",
"++++++++++++++++++++++++++++++++++  oooooooooo    ++++++++++++++++++++++++++++++",
"++++++++++++++++++++++++++++++++++++          ++++++++++++++++++++++++++++++++++",
"++++++++++++++++++++++++++++++++++++          ++++++++++++++++++++++++++++++++++",
"++++++++++++++++++++++++++++++++++++++++++++++++++++++++++++++++++++++++++++++++",
"++++++++++++++++++++++++++++++++++++++++++++++++++++++++++++++++++++++++++++++++",
"++++++++++++++++++++++++++++++++++++++++++++++++++++++++++++++++++++++++++++++++",
"++++++++++++++++++++++++++++++++++++++++++++++++++++++++++++++++++++++++++++++++",
"++++++++++++++++++++++++++++++++++++++++++++++++++++++++++++++++++++++++++++++++",
"++++++++++++++++++++++++++++++++++++++++++++++++++++++++++++++++++++++++++++++++",
"++++++++++++++++++++++++++++++++++++++++++++++++++++++++++++++++++++++++++++++++",
"++++++++++++++++++++++++++++++++++++++++++++++++++++++++++++++++++++++++++++++++",
"++++++++++++++++++++++++++++++++++++++++++++++++++++++++++++++++++++++++++++++++",
"++++++++++++++++++++++++++++++++++++++++++++++++++++++++++++++++++++++++++++++++",
"++++++++++++++++++++++++++++++++++++++++++++++++++++++++++++++++++++++++++++++++",
"++++++++++++++++++++++++++++++++++++++++++++++++++++++++++++++++++++++++++++++++",
"++++++++++++++++++++++++++++++++++++++++++++++++++++++++++++++++++++++++++++++++",
"++++++++++++++++++++++++++++++++++++++++++++++++++++++++++++++++++++++++++++++++",
"++++++++++++++++++++++++++++++++++++++++++++++++++++++++++++++++++++++++++++++++",
"++++++++++++++++++++++++++++++++++++++++++++++++++++++++++++++++++++++++++++++++"
};
