/* XPM */
static char *result[] = {
/* columns rows colors chars-per-pixel */
"80 80 12 1 ",
"  c black",
". c #B28705",
"X c #FF9800",
"o c #FFC107",
"O c #AA00FF",
"+ c #C34DFF",
"@ c #E040FB",
"# c #FFE085",
"$ c #D582FF",
"% c #E1A7FF",
"& c #F4BDFD",
"* c None",
/* pixels */
"********************************************************************************",
"********************************************************************************",
"********************************************************************************",
"********************************************************************************",
"********************************************************************************",
"********************************************************************************",
"********************************************************************************",
"********************************************************************************",
"********************************************************************************",
"********************************************************************************",
"********************************************************************************",
"********************************************************************************",
"********************************************************************************",
"********************************************************************************",
"********************************              **********************************",
"********************************              **********************************",
"****************************    ######oooooooo    ******************************",
"****************************    ######oooooooo    ******************************",
"************************    ########oooooooooooooo    **************************",
"************************    ########oooooooooooooo    **************************",
"**********************  ##########oooooooooooooooooooo  ************************",
"**********************  ##########oooooooooooooooooooo  ************************",
"********************  ##########ooXXXXXXXXXXoooooooooooo  **********************",
"********************  ##########ooXXXXXXXXXXoooooooooooo  **********************",
"******************  ########ooXXXXooooooooooXXXXoooooooooo  ********************",
"******************  ########ooXXXXooooooooooXXXXoooooooooo  ********************",
"******************  ######ooXXooooooooooooooooooXXoooooooo  ********************",
"******************  ######ooXXooooooooooooooooooXXoooooooo  ********************",
"****************  ######ooooXXooooooooooooooooooXXoooooooooo  ******************",
"****************  ######ooooXXooooooooooooooooooXXoooooooooo  ******************",
"****************  ####ooooXXooooooooooooooooooooooXXoooooooo  ******************",
"****************  ####ooooXXooooooooooooooooooooooXXoooooooo  ******************",
"**************  ####ooooooXXoooooooooo  ooooooooooXXoooooooo..  ****************",
"**************  ####ooooooXXoooooooooo  ooooooooooXXoooooooo..  ****************",
"**************  ####ooooXXoooooo  oooo  oooo  ..ooooXXoooooo..  ****************",
"**************  ####ooooXXoooooo  oooo  oooo  ..ooooXXoooooo..  ****************",
"**************  ##ooooooXXoooooo  $$  @@  %%  ..ooooXXoooooo..  ****************",
"**************  ##ooooooXXoooooo  $$  @@  %%  ..ooooXXoooooo..  ****************",
"**************  ooooooooXXoooooooo  ++&&++  ..ooooooXXoooooo..  ****************",
"**************  ooooooooXXoooooooo  ++&&++  ..ooooooXXoooooo..  ****************",
"**************  ooooooooXXoooooooooo  &&  ..ooooooooXXoooooo..  ****************",
"**************  ooooooooXXoooooooooo  &&  ..ooooooooXXoooooo..  ****************",
"**************  ooooooooXXooooooooooOO++OOooooooooooXXoooooo..  ****************",
"**************  ooooooooXXooooooooooOO++OOooooooooooXXoooooo..  ****************",
"**************  ooooooooooXXoooooooooo  ..ooooooooXXoooooo....  ****************",
"**************  ooooooooooXXoooooooooo  ..ooooooooXXoooooo....  ****************",
"****************  ooooooooXXoooooooooo..ooooooooooXXoooooo..  ******************",
"****************  ooooooooXXoooooooooo..ooooooooooXXoooooo..  ******************",
"****************  ooooooooooXXooooooooooooooooooXXoooooo....  ******************",
"****************  ooooooooooXXooooooooooooooooooXXoooooo....  ******************",
"******************  ooooooooXXooooooooooooooooooXXoooooo..  ********************",
"******************  ooooooooXXooooooooooooooooooXXoooooo..  ********************",
"******************  ooooooooooXXXXooooooooooXXXXoooooo....  ********************",
"******************  ooooooooooXXXXooooooooooXXXXoooooo....  ********************",
"********************  ooooooooooooXXXXXXXXXXoooooooo....  **********************",
"********************  ooooooooooooXXXXXXXXXXoooooooo....  **********************",
"**********************  oooooooooooooooooooooooo......  ************************",
"**********************  oooooooooooooooooooooooo......  ************************",
"************************    oooooooooooooooo......    **************************",
"************************    oooooooooooooooo......    **************************",
"****************************    oooooooooooo..    ******************************",
"****************************    oooooooooooo..    ******************************",
"********************************              **********************************",
"********************************              **********************************",
"********************************************************************************",
"********************************************************************************",
"********************************************************************************",
"********************************************************************************",
"********************************************************************************",
"********************************************************************************",
"********************************************************************************",
"********************************************************************************",
"********************************************************************************",
"********************************************************************************",
"********************************************************************************",
"********************************************************************************",
"********************************************************************************",
"********************************************************************************",
"********************************************************************************",
"********************************************************************************"
};
