/* XPM */
static char *result[] = {
/* columns rows colors chars-per-pixel */
"80 80 21 1 ",
"  c black",
". c #5A2B1D",
"X c #4C352D",
"o c #743C2C",
"O c #445F24",
"+ c #823E2A",
"@ c #823F2B",
"# c #A6573F",
"$ c #BA5A3D",
"% c #8A5344",
"& c #558B2F",
"* c #618834",
"= c #B28705",
"- c #FFC107",
"; c #AD877C",
": c #CF8B77",
"> c #CF8C78",
", c #8BC34A",
"< c #DDAEA0",
"1 c white",
"2 c None",
/* pixels */
"22222222222222222222222222222222222222222222222222222222222222222222222222222222",
"22222222222222222222222222222222222222222222222222222222222222222222222222222222",
"22222222222222222222222222222222222222222222222222222222222222222222222222222222",
"22222222222222222222222222222222222222222222222222222222222222222222222222222222",
"222222222222222222222  22222222     222222222   2    222222222222222222222222222",
"22222222222222222222 ;:  222   :<:::     2   ::: :::  22222222222222222222222222",
"222222222222222222222 %:: 2 :: $$$$$ :::: : :$$$ $$$ : 2222222222222222222222222",
"222222222222222222222 %::   :: $$$$$ :::: : :$$$ $$$ : 2222222222222222222222222",
"222222222222222222222 %::   :: $$$$$ :::: : :$$$ $$$ : 2222222222222222222222222",
"2222222222222222222222 %%:::$$ :$$$$ $$$$$$ $$$$ $$$ $ 2222222222222222222222222",
"22222222222222222222222  $$$$$$ $$$$ $$::$$ $$$$ $$$ $ 2222222222222222222222222",
"222222222222222222222222 $$$$$$ $$$$ $$::$$ $$$$ $$$ $ 22222   22222222222222222",
"2222222222222222222222222 $$$$$ $$$: $$::$: $$$$ :$$$$ 2222 ::% 2222222222222222",
"22222222222222222222222222 $$$: $$$ $$$$$$ $$$$$$ $$$$ 222 :%% 22222222222222222",
"22222222222222222222222222 $$$: $$$ $$$$$$ $$$$$$ $$$$     :%% 22222222222222222",
"22222222222222222222222222 $$$ $$$$ $$$$$$ :$$$$$ $$$$::::<%  222222222222222222",
"22222222222222222222222222 $$$ $$::$ $$$$$$ $$$$$ $$:$$$$$$ 22222222222222222222",
"22222222222222222222222222 $$$ $$::$ $$$$$$ $$$$$ $$:$$$$$$ 22222222222222222222",
"22222222222222222222222222 $$$ $:  $ $$::$$$:$$$: $$:$$$$$ 222222222222222222222",
"22222222222222222222222222 :$$$$ $$$ $$::$$$ $$$ $$$$$$$$ 2222222222222222222222",
"22222222222222222222222222 :$$$$ $$$ $$::$$$ $$$ $$$$$$$$ 2222222222222222222222",
"2222222222    222222222222 :$$:$ $$$$$$$$$$$ $$$ $$$:$$  22222222222222222222222",
"222222222 <::: 22222222222 $:: : $$$$$$::$$:$ $$$::: :$ 222222222222222222222222",
"222222222 <::: 22222222222 $:$$$$: : $$$$$$:::$ $$$::: 2222222222222222222222222",
"222222222 <::: 22222222222 $:$$$$: : $$$$$$:::$ $$$::: 2222222222222222222222222",
"222222222 @@@$: 22222     $ $$$$ X  ::::<:   : >::   X 2222222222222222222222222",
"2222222222 @@@@: 222 :::: $$$$$$$X==      X$X     ===X   22222222222222222222222",
"2222222222 $$$@:     :::: $$$$$$$X===== ==X$X=== ====X ::  222222222222222222222",
"22222222222   @$:::::$@$@ $$$$$$$X--111 ==X$X=11 =---X $$$ 222222222222222222222",
"22222222222222 $@$$$$$@$@ $$$$$$$$X---- --X$X--- --XX$ $$$ 222222222222222222222",
"22222222222222 $@$$$$$@$$ $$$$$$$$X---- --X$X--- --X$$ $$$ 222222222222222222222",
"22222222222222 $@$$$$$@$$@ $$$$$$$$X-----X:::X----X$$$ @$$ 222222222222222222222",
"2222222222222 :$$@$$$@$$$@ $$$$$$::$XXXXX$$$$$XXXX$$$ $$$: 222222222222222222222",
"22222222222   :$$@$$@ $$$@ $$::$$$$$$$$$$$$$$$$$$:$$$ $$$: 222222222 22222222222",
"2222222222 :::$$&@@$$@ $$@ $$$$$$$$$$$$$$$$$$$$$$$$$$ $$$@: 222222  < 2222222222",
"222222222 :$$$$$$&&&@ $$$@ $$$$$$$$+$$$$$$$$$$$$$$$$ $$$@$$: 222  ::: 2222222222",
"222222222 :&&$&$&&&& $@$$@ $$$$$$$$+              $$ $$$@$$:  22  ::: 2222222222",
"22222222 &&&&&&&&&&& $@$$$o  $$$$$$ ::::<<<<::::::$@ $$@$$$$::  ::## 22222222222",
"22222222 &&&&&&&&&,, 22$$$oo $$$$$$:$$$$$$$$$$$$$$@ @@@@$$&$$$::##  222222222222",
"22222222 &&&&&&&&&,,, 2$$$oo $$:$$$$$$$$$$$$$$$$:$  @@$$$$&$$$::## 2222222222222",
"22222222 &&&&&&&&&,,, 2$$$oo $$:$$$$$$$$$$$$$$$$:$  @@$$$$&$$$::## 2222222222222",
"222222222 &&&,,,&,,,, 2 $$$oo $$$$$$$$$$$$$$$$$ $$$  @$&&$&$$$&$  22222222222222",
"222222222 ,,,,,,&,,,,  2 @$ooo $$$ $$$$$ $$$$$$ $  o$ &&&&&$&&&&  22222222222222",
"222222222 ,,,,,,,,,,,,,  @$ooo $$$ $$$$$ $$$$$$ $ oo$ &&&&&$&&&&  22222222222222",
"22222222  ,,,,,,,,,,,,,* @$$$o %%% $$$$$ $$$  % $ oo$ &&&&&&&&&&  22222222222222",
"22222222 ,,,,,,,,,,,,,,*  @$$$o   o     o   oo o oo$$ &,,&,&&&,&  22222222222222",
"2222222 ,,,,,,,,,,,*,,,*  @ooooooooooooooooooooo$$$@@ &,,&,&&&,&  22222222222222",
"2222222 ,,,,,,,,,,,,,,, * @$ooo$oooo$oooo$$o$o$@$$@   &,,,,,&&,,,,  222222222222",
"2222222 ,,,,,,,,,,,,,,,    $$$$$$$$$$$$$$$$$$$$@$@ 2 ,,,,,,,,,,,,,,, 22222222222",
"22222222 ,,,,,,,  ,,,,,    $$$$$$$$$@@@$$$$$$$$@$@ 2 ,,,,,,,,,,,,,,, 22222222222",
"22222222 ,,  ,,,,,,,,,, * @@$$$$$$$$$@@@@  @@@$$$ 2 *,,,,,,,,,,,,,,, 22222222222",
"22222222 , ,,,,,,,,,,,,,,*  @$$$$$$$@    ,,   $$$ 2 *,,*,,,,,,,,,,,, 22222222222",
"22222222 ,,,,,,*,,, ,,,,**  @@$$$$@@@  ,,,,,, @@@ 2 *,,,,,,,,,,,,,,, 22222222222",
"222222222 ,,,, ,,,, ****O  o         ,,,,,,,,,    2 * ,,,,, ,,,,  ,, 22222222222",
"222222222 ,,,, ,***  OOO 2 ooo$$$$o &,,,,,,,,,& o 2   ,,,,,,,,,,,,,, 22222222222",
"222222222 ,*** *OOOO  2222 ooo$$$$o &,,,,,,,,,& o 2   ,,,,,,,,*,,,,, 22222222222",
"222222222 ,*** *OOOO  2222 ooo$$$$o &,,,,,,,,,& o 2   ,,,,,,,,*,,,,, 22222222222",
"2222222222 **OOO  2222222 $$+o$$$$o &&&,,,,,,&& o<  * ,,,, ,,,, ,,,, 22222222222",
"22222222222    2222222222 $$+$$$$$$o &&&&,,&&& o$$  *,,,,, ,,,, ,,,, 22222222222",
"2222222222222222222222222 $$+$$$$$$o &&&&,,&&  o$$  ****** **** **** 22222222222",
"2222222222222222222222222 $$+$$$$$$$o  &&&&& oo$$$ 2 OOOO OOOO OOO  222222222222",
"22222222222222222222222222 $+$$$$$$$$oo  && o++$+ 222             22222222222222",
"22222222222222222222222222 $+$$$$$$$$oo  && o++$+ 222222222222222222222222222222",
"22222222222222222222222222 +$$$$$$$$$$$oo  o$++$+ 222222222222222222222222222222",
"22222222222222222222222222 +$$$ :+$$ooo$$++$$+$$$: 22222222222222222222222222222",
"22222222222222222222222222 +$$$ :+$$ooo$$++$$+$$$: 22222222222222222222222222222",
"222222222222222222222222  $+$$$ :+$$$:: $$$+: ++$: 22222222222222222222222222222",
"2222222222222222222222  $$+$$  <$+$$$<< $$$+$<  +$: 2222222222222222222222222222",
"2222222222222222222222  $$+$$  <$+$$$<< $$$+$<  +$:   22222222222222222222222222",
"222222222222222222222 $+$$+$ <<$$ ++$<< $$$+$$:: +$::: 2222222222222222222222222",
"22222222222222222222 ++$$$$$ <<$$ ++$:: $$$$$$:: +$$$$: 222222222222222222222222",
"22222222222222    2  ++$$$$$ <<$$ ++$:: $$$$$$:: +$$$$: 222222222222222222222222",
"22222222222222    2  ++$$$$$ <<$$ ++$:: $$$$$$:: +$$$$: 222222222222222222222222",
"22222222222   <<:: $$+$$    <$$$$ $$$$$< $$$$$$$:  $$$$:    22222222222222222222",
"2222222222 :::++++++++  <<<<++++ <++++++: 2++++++::  +++:::: 2222222222222222222",
"2222222222 :::++++++++  <<<<++++ <++++++: 2++++++::  +++::::   22222222222222222",
"2222222   ........... .......... ........ 2........:: .........   22222222222222",
"22222                2          2        22          2               22222222222",
"22222222222222222222222222222222222222222222222222222222222222222222222222222222",
"22222222222222222222222222222222222222222222222222222222222222222222222222222222"
};
