/* XPM */
static char *result[] = {
/* columns rows colors chars-per-pixel */
"80 80 21 1 ",
"  c black",
". c #5A2B1D",
"X c #4C352D",
"o c #743C2C",
"O c #445F24",
"+ c #823E2A",
"@ c #823F2B",
"# c #A6573F",
"$ c #BA5A3D",
"% c #8A5344",
"& c #558B2F",
"* c #618834",
"= c #B28705",
"- c #FFC107",
"; c #AD877C",
": c #CF8B77",
"> c #CF8C78",
", c #8BC34A",
"< c #DDAEA0",
"1 c white",
"2 c None",
/* pixels */
"22222222222222222222222222222222222222222222222222222222222222222222222222222222",
"22222222222222222222222222222222222222222222222222222222222222222222222222222222",
"22222222222222222222222222222222222222222222222222222222222222222222222222222222",
"22222222222222222222222222222222222222222222222222222222222222222222222222222222",
"222222222222222222222222222    2   222222222     22222222  222222222222222222222",
"22222222222222222222222222  ::: :::   2     :::<:   222  :; 22222222222222222222",
"2222222222222222222222222 : $$$ $$$: : :::: $$$$$ :: 2 ::% 222222222222222222222",
"2222222222222222222222222 : $$$ $$$: : :::: $$$$$ ::   ::% 222222222222222222222",
"2222222222222222222222222 : $$$ $$$: : :::: $$$$$ ::   ::% 222222222222222222222",
"2222222222222222222222222 $ $$$ $$$$ $$$$$$ $$$$: $$:::%% 2222222222222222222222",
"2222222222222222222222222 $ $$$ $$$$ $$::$$ $$$$ $$$$$$  22222222222222222222222",
"22222222222222222   22222 $ $$$ $$$$ $$::$$ $$$$ $$$$$$ 222222222222222222222222",
"2222222222222222 %:: 2222 $$$$: $$$$ :$::$$ :$$$ $$$$$ 2222222222222222222222222",
"22222222222222222 %%: 222 $$$$ $$$$$$ $$$$$$ $$$ :$$$ 22222222222222222222222222",
"22222222222222222 %%:     $$$$ $$$$$$ $$$$$$ $$$ :$$$ 22222222222222222222222222",
"222222222222222222  %<::::$$$$ $$$$$: $$$$$$ $$$$ $$$ 22222222222222222222222222",
"22222222222222222222 $$$$$$:$$ $$$$$ $$$$$$ $::$$ $$$ 22222222222222222222222222",
"22222222222222222222 $$$$$$:$$ $$$$$ $$$$$$ $::$$ $$$ 22222222222222222222222222",
"222222222222222222222 $$$$$:$$ :$$$:$$$::$$ $  :$ $$$ 22222222222222222222222222",
"2222222222222222222222 $$$$$$$$ $$$ $$$::$$ $$$ $$$$: 22222222222222222222222222",
"2222222222222222222222 $$$$$$$$ $$$ $$$::$$ $$$ $$$$: 22222222222222222222222222",
"22222222222222222222222  $$:$$$ $$$ $$$$$$$$$$$ $:$$: 222222222222    2222222222",
"222222222222222222222222 $: :::$$$ $:$$::$$$$$$ : ::$ 22222222222 :::< 222222222",
"2222222222222222222222222 :::$$$ $:::$$$$$$ : :$$$$:$ 22222222222 :::< 222222222",
"2222222222222222222222222 :::$$$ $:::$$$$$$ : :$$$$:$ 22222222222 :::< 222222222",
"2222222222222222222222222 X   ::> :   :<::::  X $$$$ $     22222 :$@@@ 222222222",
"22222222222222222222222   X===     X$X      ==X$$$$$$$ :::: 222 :@@@@ 2222222222",
"222222222222222222222  :: X==== ===X$X== =====X$$$$$$$ ::::     :@$$$ 2222222222",
"222222222222222222222 $$$ X---= 11=X$X== 111--X$$$$$$$ @$@$:::::$@   22222222222",
"222222222222222222222 $$$ $XX-- ---X$X-- ----X$$$$$$$$ @$@$$$$$@$ 22222222222222",
"222222222222222222222 $$$ $$X-- ---X$X-- ----X$$$$$$$$ $$@$$$$$@$ 22222222222222",
"222222222222222222222 $$@ $$$X----X:::X-----X$$$$$$$$ @$$@$$$$$@$ 22222222222222",
"222222222222222222222 :$$$ $$$XXXX$$$$$XXXXX$::$$$$$$ @$$$@$$$@$$: 2222222222222",
"22222222222 222222222 :$$$ $$$:$$$$$$$$$$$$$$$$$$::$$ @$$$ @$$@$$:   22222222222",
"2222222222 <  222222 :@$$$ $$$$$$$$$$$$$$$$$$$$$$$$$$ @$$ @$$@@&$$::: 2222222222",
"2222222222 :::  222 :$$@$$$ $$$$$$$$$$$$$$$$+$$$$$$$$ @$$$ @&&&$$$$$$: 222222222",
"2222222222 :::  22  :$$@$$$ $$              +$$$$$$$$ @$$@$ &&&&$&$&&: 222222222",
"22222222222 ##::  ::$$$$@$$ @$::::::<<<<:::: $$$$$$  o$$$@$ &&&&&&&&&&& 22222222",
"222222222222  ##::$$$&$$@@@@ @$$$$$$$$$$$$$$:$$$$$$ oo$$$22 ,,&&&&&&&&& 22222222",
"2222222222222 ##::$$$&$$$$@@  $:$$$$$$$$$$$$$$$$:$$ oo$$$2 ,,,&&&&&&&&& 22222222",
"2222222222222 ##::$$$&$$$$@@  $:$$$$$$$$$$$$$$$$:$$ oo$$$2 ,,,&&&&&&&&& 22222222",
"22222222222222  $&$$$&$&&$@  $$$ $$$$$$$$$$$$$$$$$ oo$$$ 2 ,,,,&,,,&&& 222222222",
"22222222222222  &&&&$&&&&& $o  $ $$$$$$ $$$$$ $$$ ooo$@ 2  ,,,,&,,,,,, 222222222",
"22222222222222  &&&&$&&&&& $oo $ $$$$$$ $$$$$ $$$ ooo$@  ,,,,,,,,,,,,, 222222222",
"22222222222222  &&&&&&&&&& $oo $ %  $$$ $$$$$ %%% o$$$@ *,,,,,,,,,,,,,  22222222",
"22222222222222  &,&&&,&,,& $$oo o oo   o     o   o$$$@  *,,,,,,,,,,,,,, 22222222",
"22222222222222  &,&&&,&,,& @@$$$ooooooooooooooooooooo@  *,,,*,,,,,,,,,,, 2222222",
"222222222222  ,,,,&&,,,,,&   @$$@$o$o$$oooo$oooo$ooo$@ * ,,,,,,,,,,,,,,, 2222222",
"22222222222 ,,,,,,,,,,,,,,, 2 @$@$$$$$$$$$$$$$$$$$$$$    ,,,,,,,,,,,,,,, 2222222",
"22222222222 ,,,,,,,,,,,,,,, 2 @$@$$$$$$$$@@@$$$$$$$$$    ,,,,,  ,,,,,,, 22222222",
"22222222222 ,,,,,,,,,,,,,,,* 2 $$$@@@  @@@@$$$$$$$$$@@ * ,,,,,,,,,,  ,, 22222222",
"22222222222 ,,,,,,,,,,,,*,,* 2 $$$   ,,    @$$$$$$$@  *,,,,,,,,,,,,,, , 22222222",
"22222222222 ,,,,,,,,,,,,,,,* 2 @@@ ,,,,,,  @@@$$$$@@  **,,,, ,,,*,,,,,, 22222222",
"22222222222 ,,  ,,,, ,,,,, * 2    ,,,,,,,,,         o  O**** ,,,, ,,,, 222222222",
"22222222222 ,,,,,,,,,,,,,,   2 o &,,,,,,,,,& o$$$$ooo 2 OOO  ***, ,,,, 222222222",
"22222222222 ,,,,,*,,,,,,,,   2 o &,,,,,,,,,& o$$$$ooo 2222  OOOO* ***, 222222222",
"22222222222 ,,,,,*,,,,,,,,   2 o &,,,,,,,,,& o$$$$ooo 2222  OOOO* ***, 222222222",
"22222222222 ,,,, ,,,, ,,,, *  <o &&,,,,,,&&& o$$$$o+$$ 2222222  OOO** 2222222222",
"22222222222 ,,,, ,,,, ,,,,,*  $$o &&&,,&&&& o$$$$$$+$$ 2222222222    22222222222",
"22222222222 **** **** ******  $$o  &&,,&&&& o$$$$$$+$$ 2222222222222222222222222",
"222222222222  OOO OOOO OOOO 2 $$$oo &&&&&  o$$$$$$$+$$ 2222222222222222222222222",
"22222222222222             222 +$++o &&  oo$$$$$$$$+$ 22222222222222222222222222",
"222222222222222222222222222222 +$++o &&  oo$$$$$$$$+$ 22222222222222222222222222",
"222222222222222222222222222222 +$++$o  oo$$$$$$$$$$$+ 22222222222222222222222222",
"22222222222222222222222222222 :$$$+$$++$$ooo$$+: $$$+ 22222222222222222222222222",
"22222222222222222222222222222 :$$$+$$++$$ooo$$+: $$$+ 22222222222222222222222222",
"22222222222222222222222222222 :$++ :+$$$ ::$$$+: $$$+$  222222222222222222222222",
"2222222222222222222222222222 :$+  <$+$$$ <<$$$+$<  $$+$$  2222222222222222222222",
"22222222222222222222222222   :$+  <$+$$$ <<$$$+$<  $$+$$  2222222222222222222222",
"2222222222222222222222222 :::$+ ::$$+$$$ <<$++ $$<< $+$$+$ 222222222222222222222",
"222222222222222222222222 :$$$$+ ::$$$$$$ ::$++ $$<< $$$$$++ 22222222222222222222",
"222222222222222222222222 :$$$$+ ::$$$$$$ ::$++ $$<< $$$$$++  2    22222222222222",
"222222222222222222222222 :$$$$+ ::$$$$$$ ::$++ $$<< $$$$$++  2    22222222222222",
"22222222222222222222    :$$$$  :$$$$$$$ <$$$$$ $$$$<    $$+$$ ::<<   22222222222",
"2222222222222222222 ::::+++  ::++++++2 :++++++< ++++<<<<  ++++++++::: 2222222222",
"22222222222222222   ::::+++  ::++++++2 :++++++< ++++<<<<  ++++++++::: 2222222222",
"22222222222222   ......... ::........2 ........ .......... ...........   2222222",
"22222222222               2          22        2          2                22222",
"22222222222222222222222222222222222222222222222222222222222222222222222222222222",
"22222222222222222222222222222222222222222222222222222222222222222222222222222222"
};
