/* XPM */
static char *_c60c167161440a3efabd2324fbd4654d0rLFfzTxgEGLoh2[] = {
/* columns rows colors chars-per-pixel */
"80 80 22 1 ",
"  c None",
". c black",
"X c #5A2B1D",
"o c #5B2C1E",
"O c #4C352D",
"+ c #743C2C",
"@ c #445F24",
"# c #823E2A",
"$ c #823F2B",
"% c #A6573F",
"& c #BA5A3D",
"* c #8A5344",
"= c #558B2F",
"- c #618834",
"; c #B28705",
": c #FFC107",
"> c #AD877C",
", c #CF8B77",
"< c #CF8C78",
"1 c #8BC34A",
"2 c #DDAEA0",
"3 c white",
/* pixels */
"                                                                                ",
"                                                                                ",
"                                                                                ",
"                                                                                ",
"                   ..        ......        ... .....                            ",
"                  .>,..   ...,22,,,.... ...,,,.,,,...                           ",
"                   .*,,. .,,.&&&&&&.,,,.,.,&&&.&&&..,.                          ",
"                   .*,,...,,.&&&&&&.,,,.,.,&&&.&&&..,.                          ",
"                    .**,,,&&.,&&&&&.&&&&&.&&&&.&&&..&.                          ",
"                     ..&&&&&&.&&&&&.&,,&&.&&&&.&&&..&.                          ",
"                     ..&&&&&&.&&&&&.&,,&&.&&&&.&&&..&.                          ",
"                      .&&&&&&.&&&&&.&,,&&.&&&&.&&&..&.     ...                  ",
"                       .&&&&&.&&&&,.&,,&,.&&&&.,&&&&&.    .,,*.                 ",
"                        .&&&,.&&&&.&&&&&.&&&&&&.&&&&&.   .,**.                  ",
"                        .&&&,.&&&&.&&&&&.&&&&&&.&&&&&.....,**.                  ",
"                        .&&&.&&&&&.&&&&&.,&&&&&.&&&&&,,,,2*..                   ",
"                        .&&&.&&&,,&.&&&&&.&&&&&.&&,,&&&&&&.                     ",
"                        .&&&.&&&,,&.&&&&&.&&&&&.&&,,&&&&&&.                     ",
"                        .&&&.&,,..&.&,,&&&,&&&,.&&,,&&&&&.                      ",
"                        .,&&&&..&&&.&,,&&&.&&&.&&&&&&&&&.                       ",
"                        .,&&&&..&&&.&,,&&&.&&&.&&&&&&&&&.                       ",
"         ....           .,&&,&..&&&&&&&&&&.&&&.&&&,,&&..                        ",
"        .2,,,.          .&,,.,..&&&&&,,&&,&.&&&,,,..,&.                         ",
"        .2,,,.          .&,,.,..&&&&&,,&&,&.&&&,,,..,&.                         ",
"        .$$$&,.     .....&..O...,,,2,..&&.,.<,,...OO.&.......                   ",
"         .$$$$,.   .,,,,.&&&O;;;.....O&&&O.....;;;OO&&.,,2,,,.                  ",
"         .&&&$,.....,,,,.&&&O;;;;;.;;O&&&O;;;.;;;;OO&&.,,2,,,...                ",
"          ...$&,,,,,&$&$.&&&O:::33.;;O&&&O;33.;:::OO&&.$&$&&&,,,..              ",
"             .&$&&&&&$&$.&&&&O::::.::O&&&O:::.::OO&&&&.$&$&&&&&$,,.             ",
"             .&$&&&&&$&&.&&&&O::::.::O&&&O:::.::O&&&&&.$&$&&&&&$,,.             ",
"             .&$&&&&&$&&.&&&&O::::.::O&&&O:::.::O&&&&&.$&$&&&&&$,,.             ",
"             .&$&&&&&$&&$.&&&&OO::::O,,,,,O::::O&&&&&.$&&&$&&&&$,,.             ",
"            .,&&$&&&$&&&$.&&,,&&OOOO&&&&&&&OOOO&,,,,&.$&&&$&&&$&&&,.            ",
"          ...,&&$&&&$&&&$.&&,,&&&&&&&&&&&&&&&&&&,,,,&.$&&&$&&&$&&&,.         .  ",
"         .,,,&&&&$&&$&&&$.&&&&&&&&&&&&&&&&&&&&&&&&&&&.$&&&$&&&$&&&$,.      ..2. ",
"        .,&&$$&&==$&$&&&$.&&&&$$&&&&&&&&&&&&&&.$&&&&&.$&&$&&&$&&&$&&,.    .,,,. ",
"        .,&&&$&&==$&&$&&$.&&&&$$...............$&&&&&.$&&$&&&$&&&$&&,...  .,,,. ",
"       .2=&&&&$$==$&&$&&&+..&&..,,,2222,,,,,,,,.&&&&.+&&&&$$$o&&$&&&&,,,..,%%.  ",
"       .,=&&&&&=$&&$.&&&&++.&&,,&&&&&&&&&&&&&&&,&&&&.+&&&$...$$$$&&=&&&&,,%..   ",
"       .,=&&&&&=&$&&.&&&&++.&&,,&&&&&&&&&&&&&&&,&&&&.+&&&$. .$$&&&&=&&&&,,%.    ",
"      .======&====$. ..&&&++.&&&&&&&&&&&&&&&&&.&&&..+&&&$.   .$&==&=&&&&=&.     ",
"      .===========.    .$&+++.&&&&.&&&&.&&&&&&.&..++&&&&$.    .=====&=====.     ",
"      .===========.    .$&+++.&&&&.&&&&.&&&&&&.&.+++&&&&$.    .=====&=====.     ",
"      .==1======11.    .$&&&+.****.&&&&.&&&..*.&.+++&&&$.     .===========.     ",
"      .111111=1111.     .$&&&+....+....+...++.+.++&&&&&$.     .=11=1====1=.     ",
"     ..111111=1111.     .$&&&+++++++++++++++++++++&&&&$$.     .=11=1====1=.     ",
"    .1111111111111.     .$&&&&++++&++++&+++&&+&+&$&&&$..      .=11111===111..   ",
"   .111111111111111.     .$&&&&&&&&&&&&&&&&&&&&&&$&&$.       .111111111111111.  ",
"   .111111111111111.     .$$&&&&&&&&&&&$$&&&&&&&&$&&$.       .111111111111111.  ",
"   .111111111111111-.     ..$$&&&&&&$$$..$$$&&&&$$&&.       .-111111111111111.  ",
"   .111111111111111-.     ..$$&&&&&&$$$..$$$&&&&$$&&.       .-111111111111111.  ",
"   .11111111111-111-.       ..$$&&&$...11...&&&&$o$$.       .-11-111111111111.  ",
"   .111111111111111-.       ..$$$$$$.111111.$$$$.....       .-111111111111111.  ",
"   .1..111...11111.-.       .+......11111111....++++.       .-.11111.11111.11.  ",
"   .11111111111111...       .+++++.=11111111=.++&&&&.       ...11111111111111.  ",
"   .1111-111111111...       .+++++.=11111111=.++&&&&.       ...111111111-1111.  ",
"   .111.11111.1111.-.      .&&##++.==111111==.+$&&&&2.      .-.1111.11111.111.  ",
"   .111.11111.11111-.      .&&##&&+.===11===.+&$&&&&&.      .-11111.11111.111.  ",
"   .---.-----.------.      .&&##&&+.===11==..+&$&&&&&.      .------.-----.---.  ",
"    .@@@.@@@@@.@@@@.       .&&#$&&&+.=====.++&&$&&&&&.       .@@@@.@@@@@.@@..   ",
"     ..............         .&$$&&&&+..==.+$$&$&&&,,.         .............     ",
"                            .&$$&&&&+..==.+$#&$&&&,,.                           ",
"                            .$&&&&&&&++..+&##&$&&&,,.                           ",
"                            .$&&&&.,$&&++&&##&&$&&&&,.                          ",
"                            .$&&&&.,$&&++&&$$&&$&&&&,.                          ",
"                          ..&$&&&&.,$&&&,.&&&$,.$$&&,.                          ",
"                        ..&&$&&&..2&$&&&2.&&&$&2..$$&,.                         ",
"                        ..&&$&&&..2&$&&&2.&&&$&2..$$&,...                       ",
"                       .&$&&$&..22&&.##&2.&&&$&&,,..$&,,,.                      ",
"                      .$$&&&&&..22&&.##&,.&&&&&&,,..$&&&&,.                     ",
"                      .$$&&&&&..22&&.$#&,.&&&&&&,,..$&&&&,.                     ",
"                .... ..$$&&&&&..22&&.$#&,.&&&&&&,,..$&&&&,.                     ",
"              ..22,,.&&$&&....22&&&&.&&&&2.&&&&&&&,,..&&&&,....                 ",
"             .,,####$#$$..2222$$$$#.2$##$$,. $$$$$$$,,..$$$,,,,.                ",
"             .,,####$$$$..2222$$$$$.2$$$$$,. $$$##$#,,..$$$,,,,...              ",
"         ....XXXXXXXXXX.XXXXXXXXXXX.XXXXXXX. XXXXXXXXX,,.XXXXXXXXX..            ",
"       ................ ........... .......  ........... ...............        ",
"                                                                                ",
"                                                                                ",
"                                                                                "
};
