/* XPM */
static char *b7b14eb34d5b49319720a41914ae9c103wlvZpXGIBG2Ilgk[] = {
/* columns rows colors chars-per-pixel */
"80 80 19 1 ",
"  c black",
". c #22130E",
"X c #301B14",
"o c #311C14",
"O c #45271D",
"+ c #46281D",
"@ c #633829",
"# c #255527",
"$ c #7E6961",
"% c #8F513B",
"& c #92746A",
"* c #678868",
"= c #B08576",
"F c #673AB7",
"- c #B18676",
"; c #A59691",
": c #95AC96",
"> c #C0B6B2",
", c #B5C5B6",
/* pixels */
"FXXXOOOOOOOOO@@@@@@@@%%%%%% @@@%%%%%%%%%%%%%%%%%%%%%%%%%%%%%%%%%%%%%%===========",
"XXXOOOOOOOOOO@@@@@@@@%%%%%% @@%%%%%%%%%%%%%%%%%%%%%%%%%%%%%%%%%%%%%%%===========",
"XXXOOOOOOOOOO@@@@@@@@%%%%%% @@%%%%%%%%%%%%%%%%%%%%%%%%%%%%%%%%%%%%%%%===========",
"XXXOOOOOOOOO@@@@@@@@@%%%%%% @@%%%%%%%%%%%%%%%%%%%%%%%%%%%%%%%%%%%%%%%===========",
"XXOOOOOOOOOO@@@@@@@@@%%%%%% @@%%%%%%%%%%%%%%%%%%%%%%%%%%%%%%%%%%%%%%%===========",
"XXOOOOOOOOOO@@@@@@@@@%%%%%% @@%%%%%%%%%%%%%%%%%%%%%%%%%%%%%%%%%%%%%%%===========",
"XXOOOOOOOOOO@@@@@@@@@%%%%%% @@%%%%%%%%%%%%%%%%%%%%%%%%%%%%%%%%%%%%%%%===========",
"XXOOOOOOOOOO@@@@@@@@@%%%%%% @@%%%%%%%%%%%%%%%%%%%%%%%%%%%%%%%%%%%%%%%===========",
"XXOOOOOOOOOO@@@@@@@@@%%%%%% @@%%%%%%%%%%%%%%%%%%%%%%%%%%%%%%%%%%%%%%%===========",
"XXOOOOOOOOOO@@@@@@@@@%%%%%% @@%%%%%%%%%%%%%%%%%%%%%%%%%%%%%%%%%%%%%%============",
"XXOOOOOOOOOO@@@@@@@@@%%%%%% @@%%%%%%%%%%%%%%%%%%%%%%%%%%%%%%%%%%%%%%============",
"XXOOOOOOOOOO@@@@@@@@@%%%%%% @%%%%%%%%%%%%%%%%%%%%%%%%%%%%%%%%%%%%%%%============",
"XXOOOOOOOOOO@@@@@@@@@%%%%%% @%%%%%%%%%%%%%%%%%%%%%%%%%%%%%%%%%%%%%%%============",
"XXOOOOOOOOOO@@@@@@@@@%%%%%% @%%%%%%%%%%%%%%%%%%%%%%%%%%%%%%%%%%%%%%%============",
"XXOOOOOOOOOO@@@@@@@@@%%%%%% @@%%%%%%%%%%%%%%%%%%%%%%%%%%%%%%%%%%%%%%============",
"XXOOOOOOOOOO@@@@@@@@%%%%%%% @@%%%%%%%%%%%%%%%%%%%%%%%%%%%%%%%%%%%%%%============",
"XXOOOOOOOOOO@@@@@@@@%%%%%%% @@%%%%%%%%%%%%%%%%%%%%%%%%%%%%%%%%%%%%%%============",
"XXOOOOOOOOOO@@@@@@@@%%%%%%% @@%%%%%%%%%%%%%%%%%%%%%%%%%%%%%%%%%%%%%%============",
"XXOOOOOOOOOO@@@@@@@@%%%%%%% @@%%%%%%%%%%%%%%%%%%%%%%%%%%%%%%%%%%%%%%============",
"XXOOOOOOOOOO@@@@@@@@%%%%%%% @@%%%%%%%%%%%%%%%%%%%%%%%%%%%%%%%%%%%%%%============",
"XXOOOOOOOOOO@@@@@@@@%%%%%%% @@%%%%%%%%%%%%%%%%%%%%%%%%%%%%%%%%%%%%%%============",
"XXOOOOOOOOOO@@@@@@@%%%%%%%% @@%%%%%%%%%%%%%%%%%%%%%%%%%%%%%%%%%%%%%%============",
"XXOOOOOOOOO@@@@@@@@%%%%%%   @@@%%%%%%%%%%%%%%%%%%%%%%%%%%%%%%%%%%%%%============",
"  OOOOOOOOO@@@@@@@@%%%      @@@%%%%%%%%%%%%%%%%%%%%%%%%%%%%%%%%%%%%%============",
"  OOOOOOOOO@@@@@@@@%%%      @@@%%%%%%%%%%%%%%%%%%%%%%%%%%%%%%%%%%%%%============",
"            @@@@@@@         @@@%%%%%%%%%%%%%%%%%%%%%%%%%%%%%%%%%%%%%============",
"                            @@@%%%%%%%%%%%%%%%%%%%%%%%%%%%%%%%%%%%%%============",
" OOOOOOOOOO@@@@@@@@%%       @@@%%%%%%%%%%%%%%%%%%%%%%%%%%%%%%%%%%%%%============",
"XOOOOOOOOOO@@@@@@@@@%%%%%   @@@%%%%%%%%%%%%%%%%%%%%%%%%%%%%%%%%%%%%%%===========",
"XOOOOOOOOOO@@@@@@@@@%%%%%%  @@@%%%%%%%%%%%%%%%%%%%%%%%%%%%%%%%%%%%%%%===========",
"XXOOOOOOOO@@@@@@@@@@%%%%%%% @@@%%%%%%%%%%%%%%%%%%%%%%%%%%%%%%%%%%%%%%===========",
"XXOOOOOOOO@@@@@@@@@@%%%%%%% @@@%%%%%%%%%%%%%%%%%%%%%%%%%%%%%%%%%%%%%%===========",
"XXOOOOOOOO@@@@@@@@@@%%%%%%% @@@%%%%%%%%%%%%%%%%%---%%%%%%%%%%%%%%%%%%%==========",
"XXOOOOOOOO@@@@@@@@@@%%%%%%%  @@%%%%%%%%%%%%%%%%-ooo%%%%%%%%%%%%%%%%%%%=-====--==",
"XXOOOOOOO@@@@@@@@@@@%%%%%%%   @%%%%%%%%%%%%%%%-oo%%%%%%%%%%%%%%%%%%%%%----=     ",
"XXOOOOOOO@@@@@@@@@@@@%%%%%%   @%%%%%%%%%%%%%%%-o%%%%%%%%%%%%%%%%%%%%%%%         ",
"XXOOOOOOO@@@@@@@@@@@@%%%%%%    %%%%%%%%%%%%%%-oo%%%%%%%%%%%%%%%%%%%%%           ",
"XXOOOOOOO@@@@@@@@@@@@%%%%%%      %%%%%%%%%%%-oo%%%%%%%%%%%%%%%%%%%%             ",
"XXOOOOOOO@@@@@@@@@@@@%%%%%%               %%-o%%%%%%%%%####*                    ",
"XXOOOOOOO@@@@@@@@@@@@%%%%%%                       %   #######*   %%%%%          ",
"XXOOOOOOO@@@@@@@@@@@@%%%%%%                       %   #######*   %%%%%          ",
"XXOOOOOOO@@@@@@@@@@@@%%%%%%    @@  %%%%%%            ########*%%%%%%%%==---=    ",
"XXOOOOOOO@@@@@@@@@@@%%%%%%%   @@@%%%%%%%%%%%%%%%%%%%+######:##*%%%%%%-==-===--==",
"XXOOOOOOO@@@@@@@@@@@%%%%%%%  @@@%%%%%%%%%%%%%%%%%%%%#+#::::###*%%%%%%-==========",
"XXOOOOOOO@@@@@@@@@@@%%%%%%% @@@@%%%%%%%%%%%%%%%%%%%%##+::#####*%%%%%%===========",
"XXOOOOOOO@@@@@@@@@@@%%%%%%% @@@@%%%%%%%%%%%%%%%%%%%%###++:####**%%%%%===========",
"XXOOOOOOO@&.@@@@@@@@%%%%%%% @@@%%%%%%%%%%%%%%%%%%%%%##:++$::####*%%%%===========",
"XXOOOOOOO@@&.@@@@@@@%%%%%%% @@@%%%%%%%%%%%%%%%%%%%%%##:###:$:#::#*%%%===========",
"XXOOOOOOO@@@&.@@@@@@%%%%%%% @@@%%%%%%%%%%%%%%%%%%%%%##:####:;;:##*%%%===========",
"XXOOOOOOOO@@&.@@@@@@%%%%%%% @@@%%%%%%%%%%%%%%%%%%%%%###::####,;:##*%%===========",
"XXOOOOOOOO@@&.@@@@@@%%%%%%% @@@%%%%%%%%%%%%%%%%%%%%%%########::;>#*%%===========",
"XOOOOOOOOO@&.@@@@@@@%%%     @@@%%%%%%%%%%%%%%%%%%%%%%########:##;$#*%===========",
"  OOOOOOOO&.@@@@@@@%%       @@@%%%%%%%%%%%%%%%%%%%%%%%%%%%%########*%===========",
"              @@@@@         @@@%%%%%%%%%%%%%%%%%%%%%%%%%%%%%#######*============",
"      OOOO                  @@@%%%%%%%%%%%%%%%%%%%%%%%%%%%%%###%###*============",
"  XOOOOOOO@@@@@@@@@%%%      @@@%%%%%%%%%%%%%%%%%%%%%%%%%%%%%%%%%%%%%============",
"  XOOOOOOO@@@@@@@@@%%%      @@@%%%%%%%%%%%%%%%%%%%%%%%%%%%%%%%%%%%%%============",
"XXXOOOOOOO@@@@@@@@@%%%%     @@@%%%%%%%%%%%%%%%%%%%%%%%%%%%%%%%%%%%%%============",
"XXXOOOOOOO@@@@@@@@@%%%%%%%% @@@%%%%%%%%%%%%%%%%%%%%%%%%%%%%%%%%%%%%%============",
"XXXOOOOOOO@@@@@@@@@@%%%%%%% @@@%%%%%%%%%%%%%%%%%%%%%%%%%%%%%%%%%%%%%============",
"XXXOOOOOOO@@@@@@@@@@%%%%%%% @@@%%%%%%%%%%%%%%%%%%%%%%%%%%%%%%%%%%%%=============",
"XXXOOOOOOO@@@@@@@@@@%%%%%%% @@@%%%%%%%%%%%%%%%%%%%%%%%%%%%%%%%%%%%%=============",
"XXOOOOOOOO@@@@@@@@@@%%%%%%% @@@%%%%%%%%%%%%%%%%%%%%%%%%%%%%%%%%%%%%=============",
"XXOOOOOOOO@@@@@@@@@@%%%%%%% @@@%%%%%%%%%%%%%%%%%%%%%%%%%%%%%%%%%%%%=============",
"XXOOOOOOOO@@@@@@@@@@%%%%%%% @@@%%%%%%%%%%%%%%%%%%%%%%%%%%%%%%%%%%%%=============",
"XOOOOOOOOO@@@@@@@@@@%%%%%%% @@@%%%%%%%%%%%%%%%%%%%%%%%%%%%%%%%%%%%%=============",
"XOOOOOOOOO@@@@@@@@@@%%%%%%% @@@%%%%%%%%%%%%%%%%%%%%%%%%%%%%%%%%%%%%-============",
"XXOOOOOOOO@@@@@@@@@@%%%%%%% @@@%%%%%%%%%%%%%%%%%%%%%%%%%%%%%%%%%%%%-============",
"XXOOOOOOOOO@@@@@@@@@%%%%%%% @@@%%%%%%%%%%%%%%%%%%%%%%%%%%%%%%%%%%%%=============",
"XXOOOOOOOOO@@@@@@@@@%%%%%%% @@@@%%%%%%%%%%%%%%%%%%%%%%%%%%%%%%%%%%%=============",
"XXOOOOOOOOO@@@@@@@@@@%%%%%% @@@@%%%%%%%%%%%%%%%%%%%%%%%%%%%%%%%%%%%=============",
"XOOOOOOOOOO@@@@@@@@@@%%%%%% @@@@%%%%%%%%%%%%%%%%%%%%%%%%%%%%%%%%%%%=============",
"XOOOOOOOOOO@@@@@@@@@@%%%%%% @@@@%%%%%%%%%%%%%%%%%%%%%%%%%%%%%%%%%%%=============",
"XOOOOOOOOOO@@@@@@@@@@%%%%%% @@@@%%%%%%%%%%%%%%%%%%%%%%%%%%%%%%%%%%%%============",
"XOOOOOOOOOO@@@@@@@@@@%%%%%% @@@@%%%%%%%%%%%%%%%%%%%%%%%%%%%%%%%%%%%%============",
"XOOOOOOOOO@@@@@@@@@@@%%%%%% @@@@%%%%%%%%%%%%%%%%%%%%%%%%%%%%%%%%%%%%============",
"XOOOOOOOOO@@@@@@@@@@@%%%%%% @@@@%%%%%%%%%%%%%%%%%%%%%%%%%%%%%%%%%%%%============",
"XOOOOOOOOO@@@@@@@@@@@%%%%%% @@@@%%%%%%%%%%%%%%%%%%%%%%%%%%%%%%%%%%%%%===========",
"XXOOOOOOOO@@@@@@@@@@@%%%%%% @@@@%%%%%%%%%%%%%%%%%%%%%%%%%%%%%%%%%%%%%===========",
"XXOOOOOOOOO@@@@@@@@@@%%%%%% @@@@@%%%%%%%%%%%%%%%%%%%%%%%%%%%%%%%%%%%%%=========="
};
