/* XPM */
static char *de43c7b3a1354efed5097fbb6c3be18eOrfsfsgJor17CN47[] = {
/* columns rows colors chars-per-pixel */
"80 80 19 1 ",
"  c black",
". c #22130E",
"X c #301B14",
"o c #311C14",
"O c #45271D",
"+ c #46281D",
"@ c #633829",
"# c #255527",
"$ c #7E6961",
"% c #8F513B",
"& c #92746A",
"* c #678868",
"= c #B08576",
"- c #B18676",
"; c #A59691",
": c #95AC96",
"F c #673AB7",
"> c #C0B6B2",
", c #B5C5B6",
/* pixels */
"F=========%%%%%%%%%%%%%%%%%%%%%%%%%%%%%%%%%%%%%@@@@@ %%%%%%@@@@@@@@@@OOOOOOOOOXX",
"===========%%%%%%%%%%%%%%%%%%%%%%%%%%%%%%%%%%%%%@@@@ %%%%%%@@@@@@@@@@@OOOOOOOOXX",
"===========%%%%%%%%%%%%%%%%%%%%%%%%%%%%%%%%%%%%%@@@@ %%%%%%@@@@@@@@@@@OOOOOOOOOX",
"============%%%%%%%%%%%%%%%%%%%%%%%%%%%%%%%%%%%%@@@@ %%%%%%@@@@@@@@@@@OOOOOOOOOX",
"============%%%%%%%%%%%%%%%%%%%%%%%%%%%%%%%%%%%%@@@@ %%%%%%@@@@@@@@@@@OOOOOOOOOX",
"============%%%%%%%%%%%%%%%%%%%%%%%%%%%%%%%%%%%%@@@@ %%%%%%@@@@@@@@@@OOOOOOOOOOX",
"============%%%%%%%%%%%%%%%%%%%%%%%%%%%%%%%%%%%%@@@@ %%%%%%@@@@@@@@@@OOOOOOOOOOX",
"=============%%%%%%%%%%%%%%%%%%%%%%%%%%%%%%%%%%%@@@@ %%%%%%@@@@@@@@@@OOOOOOOOOOX",
"=============%%%%%%%%%%%%%%%%%%%%%%%%%%%%%%%%%%%@@@@ %%%%%%@@@@@@@@@@OOOOOOOOOOX",
"=============%%%%%%%%%%%%%%%%%%%%%%%%%%%%%%%%%%%@@@@ %%%%%%@@@@@@@@@@OOOOOOOOOXX",
"=============%%%%%%%%%%%%%%%%%%%%%%%%%%%%%%%%%%%@@@@ %%%%%%%@@@@@@@@@OOOOOOOOOXX",
"=============%%%%%%%%%%%%%%%%%%%%%%%%%%%%%%%%%%%%@@@ %%%%%%%@@@@@@@@@OOOOOOOOOXX",
"=============%%%%%%%%%%%%%%%%%%%%%%%%%%%%%%%%%%%%@@@ %%%%%%%@@@@@@@@@@OOOOOOOOXX",
"=============%%%%%%%%%%%%%%%%%%%%%%%%%%%%%%%%%%%%@@@ %%%%%%%@@@@@@@@@@OOOOOOOOOX",
"=============%%%%%%%%%%%%%%%%%%%%%%%%%%%%%%%%%%%%@@@ %%%%%%%@@@@@@@@@@OOOOOOOOOX",
"=============%%%%%%%%%%%%%%%%%%%%%%%%%%%%%%%%%%%%@@@ %%%%%%%@@@@@@@@@@OOOOOOOOXX",
"=============%%%%%%%%%%%%%%%%%%%%%%%%%%%%%%%%%%%%@@@ %%%%%%%@@@@@@@@@@OOOOOOOOXX",
"=============%%%%%%%%%%%%%%%%%%%%%%%%%%%%%%%%%%%%@@@ %%%%%%%@@@@@@@@@@OOOOOOOOXX",
"=============%%%%%%%%%%%%%%%%%%%%%%%%%%%%%%%%%%%%@@@ %%%%%%%@@@@@@@@@@OOOOOOOXXX",
"=============%%%%%%%%%%%%%%%%%%%%%%%%%%%%%%%%%%%%@@@ %%%%%%%@@@@@@@@@@OOOOOOOXXX",
"============%%%%%%%%%%%%%%%%%%%%%%%%%%%%%%%%%%%%%@@@ %%%%%%%@@@@@@@@@@OOOOOOOXXX",
"============%%%%%%%%%%%%%%%%%%%%%%%%%%%%%%%%%%%%%@@@ %%%%%%%%@@@@@@@@@OOOOOOOXXX",
"============%%%%%%%%%%%%%%%%%%%%%%%%%%%%%%%%%%%%%@@@     %%%%@@@@@@@@@OOOOOOOXXX",
"============%%%%%%%%%%%%%%%%%%%%%%%%%%%%%%%%%%%%%@@@      %%%@@@@@@@@@OOOOOOOX  ",
"============%%%%%%%%%%%%%%%%%%%%%%%%%%%%%%%%%%%%%@@@      %%%@@@@@@@@@OOOOOOOX  ",
"============*###%###%%%%%%%%%%%%%%%%%%%%%%%%%%%%%@@@                  OOOO      ",
"============*#######%%%%%%%%%%%%%%%%%%%%%%%%%%%%%@@@         @@@@@              ",
"===========%*########%%%%%%%%%%%%%%%%%%%%%%%%%%%%@@@       %%@@@@@@@.&OOOOOOOO  ",
"===========%*#$;##:########%%%%%%%%%%%%%%%%%%%%%%@@@     %%%@@@@@@@.&@OOOOOOOOOX",
"===========%%*#>;::########%%%%%%%%%%%%%%%%%%%%%%@@@ %%%%%%%@@@@@@.&@@OOOOOOOOXX",
"===========%%*##:;,####::###%%%%%%%%%%%%%%%%%%%%%@@@ %%%%%%%@@@@@@.&@@OOOOOOOOXX",
"===========%%%*##:;;:####:##%%%%%%%%%%%%%%%%%%%%%@@@ %%%%%%%@@@@@@.&@@@OOOOOOOXX",
"===========%%%*#::#:&:###:##%%%%%%%%%%%%%%%%%%%%%@@@ %%%%%%%@@@@@@@.&@@OOOOOOOXX",
"===========%%%%*####::&++:##%%%%%%%%%%%%%%%%%%%%%@@@ %%%%%%%@@@@@@@@.&@OOOOOOOXX",
"===========%%%%%**####:++###%%%%%%%%%%%%%%%%%%%%@@@@ %%%%%%%@@@@@@@@@@@OOOOOOOXX",
"===========%%%%%%*#####::+##%%%%%%%%%%%%%%%%%%%%@@@@ %%%%%%%@@@@@@@@@@@OOOOOOOXX",
"===========%%%%%%*###::::#+#%%%%%%%%%%%%%%%%%%%%@@@  %%%%%%%@@@@@@@@@@@OOOOOOOXX",
"===========%%%%%%*##:######+%%%%%%%%%%%%%%%%%%%@@@   %%%%%%%@@@@@@@@@@@OOOOOOOXX",
"    ======%%%%%%%%*########            %%%%%%  @@    %%%%%%@@@@@@@@@@@@OOOOOOOXX",
"          %%%%%   *#######   %                       %%%%%%@@@@@@@@@@@@OOOOOOOXX",
"          %%%%%   *#######   %                       %%%%%%@@@@@@@@@@@@OOOOOOOXX",
"                    *####%%%%%%%%%o=%%               %%%%%%@@@@@@@@@@@@OOOOOOOXX",
"             %%%%%%%%%%%%%%%%%%%%oo=%%%%%%%%%%%      %%%%%%@@@@@@@@@@@@OOOOOOOXX",
"           %%%%%%%%%%%%%%%%%%%%%oo=%%%%%%%%%%%%%%    %%%%%%@@@@@@@@@@@@OOOOOOOXX",
"         %%%%%%%%%%%%%%%%%%%%%%%o=%%%%%%%%%%%%%%%@   %%%%%%@@@@@@@@@@@@OOOOOOOXX",
"     =====%%%%%%%%%%%%%%%%%%%%%oo=%%%%%%%%%%%%%%%@   %%%%%%%@@@@@@@@@@@OOOOOOOXX",
"==========%%%%%%%%%%%%%%%%%%%ooo=%%%%%%%%%%%%%%%%@@  %%%%%%%@@@@@@@@@@OOOOOOOOXX",
"==========%%%%%%%%%%%%%%%%%%%---%%%%%%%%%%%%%%%%%@@@ %%%%%%%@@@@@@@@@@OOOOOOOOXX",
"===========%%%%%%%%%%%%%%%%%%%%%%%%%%%%%%%%%%%%%%@@@ %%%%%%%@@@@@@@@@@OOOOOOOOXX",
"===========%%%%%%%%%%%%%%%%%%%%%%%%%%%%%%%%%%%%%%@@@ %%%%%%%@@@@@@@@@@OOOOOOOOXX",
"===========%%%%%%%%%%%%%%%%%%%%%%%%%%%%%%%%%%%%%%@@@  %%%%%%@@@@@@@@@OOOOOOOOOOX",
"===========%%%%%%%%%%%%%%%%%%%%%%%%%%%%%%%%%%%%%%@@@   %%%%%@@@@@@@@@OOOOOOOOOOX",
"============%%%%%%%%%%%%%%%%%%%%%%%%%%%%%%%%%%%%%@@@       %%@@@@@@@@OOOOOOOOOO ",
"============%%%%%%%%%%%%%%%%%%%%%%%%%%%%%%%%%%%%%@@@                            ",
"============%%%%%%%%%%%%%%%%%%%%%%%%%%%%%%%%%%%%%@@@         @@@@@@@            ",
"============%%%%%%%%%%%%%%%%%%%%%%%%%%%%%%%%%%%%%@@@      %%%@@@@@@@@OOOOOOOOO  ",
"============%%%%%%%%%%%%%%%%%%%%%%%%%%%%%%%%%%%%%@@@      %%%@@@@@@@@OOOOOOOOO  ",
"============%%%%%%%%%%%%%%%%%%%%%%%%%%%%%%%%%%%%%@@@   %%%%%%@@@@@@@@OOOOOOOOOXX",
"============%%%%%%%%%%%%%%%%%%%%%%%%%%%%%%%%%%%%%%@@ %%%%%%%%@@@@@@@OOOOOOOOOOXX",
"============%%%%%%%%%%%%%%%%%%%%%%%%%%%%%%%%%%%%%%@@ %%%%%%%@@@@@@@@OOOOOOOOOOXX",
"============%%%%%%%%%%%%%%%%%%%%%%%%%%%%%%%%%%%%%%@@ %%%%%%%@@@@@@@@OOOOOOOOOOXX",
"============%%%%%%%%%%%%%%%%%%%%%%%%%%%%%%%%%%%%%%@@ %%%%%%%@@@@@@@@OOOOOOOOOOXX",
"============%%%%%%%%%%%%%%%%%%%%%%%%%%%%%%%%%%%%%%@@ %%%%%%%@@@@@@@@OOOOOOOOOOXX",
"============%%%%%%%%%%%%%%%%%%%%%%%%%%%%%%%%%%%%%%@@ %%%%%%%@@@@@@@@OOOOOOOOOOXX",
"============%%%%%%%%%%%%%%%%%%%%%%%%%%%%%%%%%%%%%%@@ %%%%%%%@@@@@@@@OOOOOOOOOOXX",
"============%%%%%%%%%%%%%%%%%%%%%%%%%%%%%%%%%%%%%%@@ %%%%%%@@@@@@@@@OOOOOOOOOOXX",
"============%%%%%%%%%%%%%%%%%%%%%%%%%%%%%%%%%%%%%%%@ %%%%%%@@@@@@@@@OOOOOOOOOOXX",
"============%%%%%%%%%%%%%%%%%%%%%%%%%%%%%%%%%%%%%%%@ %%%%%%@@@@@@@@@OOOOOOOOOOXX",
"============%%%%%%%%%%%%%%%%%%%%%%%%%%%%%%%%%%%%%%%@ %%%%%%@@@@@@@@@OOOOOOOOOOXX",
"============%%%%%%%%%%%%%%%%%%%%%%%%%%%%%%%%%%%%%%@@ %%%%%%@@@@@@@@@OOOOOOOOOOXX",
"============%%%%%%%%%%%%%%%%%%%%%%%%%%%%%%%%%%%%%%@@ %%%%%%@@@@@@@@@OOOOOOOOOOXX",
"===========%%%%%%%%%%%%%%%%%%%%%%%%%%%%%%%%%%%%%%%@@ %%%%%%@@@@@@@@@OOOOOOOOOOXX",
"===========%%%%%%%%%%%%%%%%%%%%%%%%%%%%%%%%%%%%%%%@@ %%%%%%@@@@@@@@@OOOOOOOOOOXX",
"===========%%%%%%%%%%%%%%%%%%%%%%%%%%%%%%%%%%%%%%%@@ %%%%%%@@@@@@@@@OOOOOOOOOOXX",
"===========%%%%%%%%%%%%%%%%%%%%%%%%%%%%%%%%%%%%%%%@@ %%%%%%@@@@@@@@@OOOOOOOOOOXX",
"===========%%%%%%%%%%%%%%%%%%%%%%%%%%%%%%%%%%%%%%%@@ %%%%%%@@@@@@@@@OOOOOOOOOOXX",
"===========%%%%%%%%%%%%%%%%%%%%%%%%%%%%%%%%%%%%%%%@@ %%%%%%@@@@@@@@@OOOOOOOOOXXX",
"===========%%%%%%%%%%%%%%%%%%%%%%%%%%%%%%%%%%%%%%%@@ %%%%%%@@@@@@@@OOOOOOOOOOXXX",
"===========%%%%%%%%%%%%%%%%%%%%%%%%%%%%%%%%%%%%%%%@@ %%%%%%@@@@@@@@OOOOOOOOOOXXX",
"===========%%%%%%%%%%%%%%%%%%%%%%%%%%%%%%%%%%%%%%@@@ %%%%%%@@@@@@@@OOOOOOOOOXXXX"
};
