/* XPM */
static char *e5491b61e1d541018268abdba1e72208n8LRM6QeNOQ3ZzIL[] = {
/* columns rows colors chars-per-pixel */
"80 80 19 1 ",
"  c black",
". c #22130E",
"X c #301B14",
"o c #311C14",
"O c #45271D",
"+ c #46281D",
"@ c #633829",
"# c #255527",
"$ c #7E6961",
"% c #8F513B",
"& c #92746A",
"* c #678868",
"= c #B08576",
"F c #673AB7",
"- c #B18676",
"; c #A59691",
": c #95AC96",
"> c #C0B6B2",
", c #B5C5B6",
/* pixels */
"F=================================        ======================================",
"==================================        ======================================",
"==================================        ======================================",
"==================================        ======================================",
"==================================       =======================================",
"===================================      =======================================",
"===================================      =======================================",
"===================================      =======================================",
"===================================      =======================================",
"===================================%     =======================================",
"================================%%%%   %%%=====================================%",
"%%%%%%%%%===================%%%%%%%%%  %%%%%%%%%%%%%%========================%%%",
"%%%%%%%%%%%%%%%%%%%%%%%%%%%%%%%%%%%%%  %%%%%%%%%%%%****%%%%%=============%%%%%%%",
"%%%%%%%%%%%%%%%%%%%%%%%%%%%%%%%%%%%%%% %%%%%%%%%%**####%%%%%%%%%%%%%%%%%%%%%%%%%",
"%%%%%%%%%%%%%%%%%%%%%%%%%%%%%%%%%%%%%% %%%%%%%%**##$###%%%%%%%%%%%%%%%%%%%%%%%%%",
"%%%%%%%%%%%%%%%%%%%%%%%%%%%%%%%%%%%%%%   %%%%%*###>;###%%%%%%%%%%%%%%%%%%%%%%%%%",
"%%%%%%%%%%%%%%%%%%%%%%%%%%%%%%%%%%%%%%   %%%%*#:#:;###%%%%%%%%%%%%%%%%%%%%%%%%%%",
"%%%%%%%%%%%%%%%%%%%%%%%%%%%%%%%%%%%%%%   %****#::;:####%%%%%%%%%%%%%%%%%%%%%%%%%",
"%%%%%%%%%%%%%%%%%%%%%%%%%%%%%%%%%%%%%% ***######;,::###%%%%%%%%%%%%%%%%%%%%%%%%%",
"%%%%%%%%%%%%%%%%%%%%%%%%%%%%%%%%%%%%%% ########:;######%%%%%%%%%%%%%%%%%%%%%%%%%",
"%%%%%%%%%%%%%%%%%%%%%%%%%%%%%%%%%%%%%%*###:###:$:####%%%%%%%%%%%%%%%%%%%%%%%%%%%",
"%%%%%%%%%%%%%%%%%%%%%%%%%%%%%%%%%%%%%%#####:##::####%%%%%%%%%%%%%%%%%%%%%%%%%%%%",
"%%%%%%%%%%%%%%%%%%%%%%%%%%%%%%%%%%%%%%#####:#:$#####%%%%%%%%%%%%%%%%%%%%%%%%%%%%",
"%%%%%%%%%%%%%%%%%%%%%%%%%%%%%%%%%%%%%%#####::++##:##%%%%%%%%%%%%%%%%%%%%%%%%%%%%",
"%%%%%%%%%%%%%%%%%%%%%%%%%%%%%%%%%%%%%%#####::++##:##%%%%%%%%%%%%%%%%%%%%%%%%%%%%",
"%%%%%%%%%%%%%%%%%%%%%%%%%%%%%%%%%%%%%%%#####+#:::###%%%%%%%%%%%%%%%%%%%%%%%%%%%%",
"%%%%%%%%%%%%%%%%%%%%%%%%%%%%%%%%%%%%%%%  ##+########%%%%%%%%%%%%%%%%%%%%%%%%%%%%",
"%%%%%%%%%%%%%%%%%%%%%%%%%%%%%%%%%%%%%%%   +#######%%%%%%%%%%%%%%%%%%%%%%%%%%%%%%",
"%%%%%%%%%%%%%%%%%%%%%%%%%%%%%%%%%%%%%%%   %%%%%%%%%%%%%%%%%%%%%%%%%%%%%%%%%%%%%%",
"%%%%%%%%%%%%%%%%%%%%%%%%%%%%%%%%=o%%%%%%% %%%%%%%%%%%%%%%%%%%%%%%%%%%%%%%%%%%%%%",
"%%%%%%%%%%%%%%%%%%%%%%%%%%%%%%%%=o%%%%%   %%%%%%%%%%%%%%%%%%%%%%%%%%%%%%%%%%%%%%",
"%%%%%%%%%%%%%%%%%%%%%%%%%%%%%%%%=oo%%%%   %%%%%%%%%%%%%%%%%%%%%%%%%%%%%%%%%%%%%%",
"%%%%%%%%%%%%%%%%%%%%%%%%%%%%%%%%%=ooo%%   %%%%%%%%%%%%%%%%%%%%%%%%%%%%%%%%%%%%%%",
"%%%%%%%%%%%%%%%%%%%%%%%%%%%%%%%%%%==oo%   %%%%%%%%%%%%%%%%%%%%%%%%%%%%%%%%%%%%%%",
"%%%%%%%%%%%%%%%%%%%%%%%%%%%%%%%%%%%%-oo   %%%%%%%%%%%%%%%%%%%%%%%%%%%%%%%%%%%%%%",
"%%%%%%%%%%%%%%%%%%%%%%%%%%%%%%%%%%%%%--   %%%%%%%%%%%%%%%%%%%%%%%%%%%%%%%%%%%%%%",
"%%%%%%%%%%%%%%%%%%%%%%%%%%%%%%%%%%%%%%%   %%%%%%%%%%%%%%%%%%%%%%%%%%%%%%%%%%%%%%",
"%%%%%%%%%%%%%%%%%%%%%%%%%%%%%%%%%%%%%%%   %%%%%%%%%%%%%%%%%%%%%%%%%%%%%%%%%%%%%%",
"%%%%%%%%%%%%%%%%%%%%%%%%%%%%%%%%%%%%%%    %%%%%%%%%%%%%%%%%%%%%%%%%%%%%%%%%%%%%%",
"%%%%%%%%%%%%%%%%%%%%%%%%%%%%%%%%%%%%%%   %%%%%%%%%%%%%%%%%%%%%%%%%%%%%%%%%%%%%%%",
"%%%%%%%%%%%%%%%%%%%%%%%%%%%%%%%%%%%%%%   %%%%%%%%%%%%%%%%%%%%%%%%%%%%%%%%%%%%%%%",
"%%%%%%%%%%%%%%%%%%%%%%%%%%%%%%%%%%%%%%   %%%%%%%%%%%%%%%%%%%%%%%%%%%%%%%%%%%%%%%",
"%%%%%%%%%%%%%%%%%%%%%%%%%%%%%%%%%%%%%%   %%%%%%%%%%%%%%%%%%%%%%%%%%%%%%%%%%%%%%%",
"%%%%%%%%%%%%%%%%%%%%%%%%%%%%%%%%%%%%%%   %%%%%%%%%%%%%%%%%%%%%%%%%%%%%%%%%%%%%%%",
"%%%%%%%%%%%%%%%%%%%%%%%%%%%%%%%%%%%%%%   %%%%%%%%%%%%%%%%%%%%%%%%%%%%%%%%%%%%%%%",
"%%%%%%%%%%%%%%%%%%%%%%%%%%%%%%%%%%%%%%    %%%%%%%%%%%%%%%%%%%%%%%%%%%%%%%%%%%%%%",
"%%%%%%%%%%%%%%%%%%%%%%%%%%%%%%%%%%%%%%    %%%%%%%%%%%%%%%%%%%%%%%%%%%%%%%%%%%%%%",
"%%%%%%%%%%%%%%%%%%%%%%%%%%%%%%%%%%%%%    @@%%%%%%%%%%%%%%%%%%%%%%%%%%%%%%%%%%%%@",
"%%%%%%%%%%%%%%%%%%%%%%%%%%%%%%%%%%%%%    @@@@@%%%%%%%%%%%%%%%%%%%%%%%@@@@@@@@@@@",
"@%%%%%%%%%%%%%%%%%%%%%@@@@@@@@@@@@@@      @@@@@@@@@@@@@@@@@@@@@@@@@@@@@@@@@@@@@@",
"@@@@@@@@@@@%%%@@@@@@@@@@@@@@@@@@@@         @@@@@@@@@@@@@@@@@@@@@@@@@@@@@@@@@@@@@",
"@@@@@@@@@@@@@@@@@@@@@@@@@@@@@@@@@           @@@@@@@@@@@@@@@@@@@@@@@@@@@@@@@@@@@@",
"                                                                                ",
"%%%%%%%%%%%%%%%%%%%%%%        %%%%%%%%%%%%%%%%%%%%%       %%%%%%%%%%%%%%%%%%%%%%",
"%%%%%%%%%%%%%%%%%%%%%%       %%%%%%%%%%%%%%%%%%%%%%       %%%%%%%%%%%%%%%%%%%%%%",
"%%%%%%%%%%%%%%%%%%%%%%%     %%%%%%%%%%%%%%%%%%%%%%%       %%%%%%%%%%%%%%%%%%%%%%",
"%%%%%%%%%%%%%%%%%%%%%%%     %%%%%%%%%%%%%%%%%%%%%%%       %%%%%%%%%%%%%%%%%%%%%%",
"%%%%%%%%%%%%%%%%%%%%%%%     %%%%%%%%%%%%%%%%%%%%%%%%     %%%%%%%%%%%%%%%%%%%%%%%",
"%%%%%%%%%%%%%%%%%%%%%%%%%   %%%%%%%%%%%%%%%%%%%%%%%%   %%%%%%%%%%%%%%%%%%%%%%%%%",
"@@@@@@@@@@@@@@@%%%%%%%%%%  %%%%%%%%@@@@@@@%%%%%%%%%%%  %%%%%%%%%%%%%%%@@@@@@@@@@",
"@@@@@@@@@@@@@@@@@@@@@%%%%  %@@@@@@@@@@@@@@@@@@@@@@@@%  %%%%@@@@@@@@@@@@@@@@@@@@@",
"@@@@@@@@@@@@@@@@@@@@@@@@@@ @@@@@@@@@@@@@@@@@@@@@@@@@@@ @@@@@@@@@@@@@@@@@@@@@@@@@",
"@@@@@@@@@@@@@@@@@@@@@@@@@@ @@@@@@@@@@@@@@@@@@@@@@@@@@@ @@@@@@@@@@@@@@@@@@@@@@@@@",
"@@@@@@@@@@@@@@@@@@@@@@@@@@ @@@@@@@@@@@@@@@@@@@@@@@@@@@ @@@@@@@@@@@@@@@@@@@@@@@@@",
"@@@@@@@@@@@@@@@@@@@@@@@@@@ @@@@@@@@@@@@@@@@@@@@@@@@@@@ @@@@@@@@@@@@@@@@@@@@@@@@@",
"@@@@@@@@@@@@@@@@@@@@@@@@@@ @@@@@@@@@@@@@@@@@@@@@@@@@@@ @@@@@@@@@@@@@@@@@@@@@@@@@",
"@@@@@@@@@@@@@@@@@@@@@@@@@@ @@@@@@@@@@@@@@@@@@@@@...@@  @@@@@@@@@@@@@@@@@@@@@@@@@",
"+++@@@@@@@@@@@@@@@@@@@@@@@ @@@@@@@@@@@@@@@@@@@@.&&&.@  @@@@@@@@@@@@@@@@@@@@@@@@@",
"OOOO+OOOOOOOOOOOOOOOOO@@@  @@@@@@@@@@@@@@@@@@@.&@@@&.  @@@@@@@@@@@@@@@@@@@@@@@@@",
"OOOO++OOOOOOOOOOOOOOOOOOO  OOO@@@@@@@@@@@@@@@@&@@@@@&  @@@@@@@@@@@@@OOOOOOO@@@@O",
"OOOOOOOOOOOOOOOOOOOOOOOOO  OOOOOOO@@@@@@@@@@@@@@@OOOO OOOOOOOOOOOOOOOOOOOOOOOOOO",
"OOOOOOOOOOOOOOOOOOOOOOOOO  OOOOOOOOOOOOOOOOOOOOOOOOOO OOOOOOOOOOOOOOOOOOOOOOOOOO",
"OOOOOOOOOOOOOOOOOOOOOOOOO  OOOOOOOOOOOOOOOOOOOOOOOOOO OOOOOOOOOOOOOOOOOOOOOOOOOO",
"OOOOOOOOOOOOOOOOOOOOOOOOO  OOOOOOOOOOOOOOOOOOOOOOOOOO OOOOOOOOOOOOOOOOOOOOOOOOOO",
"OOOOOOOOOOOOOOOOOOOOOOOOO  OOOOOOOOOOOOOOOOOOOOOOOOOO  OOOOOOOOOOOOOOOOOOOOOOOOO",
"OOOOOOOOOOOOOOOOOOOOOOOOO  OOOOOOOOOOOOOOOOOOOOOOOOOO  OOOOOOOOOOOOOOOOOOOOOOOOO",
"XOOOOOOOOOOOOOOOOOOOOOOOO  OOOOOOOOOOOOOOOOOOOOOOOOOO  OOOOOOOOOOOOOOOOOOOOOOOOO",
"XXXXOOOOOOOOOOOOOOOOOOOOO  OOOOOOOOOOOOOOOOOOOOOOOOOO  XXXXXXXOOOOOOOOOOOOOOOOOO",
"XXXXXXXXXXXXXXXXXXXXXXX    OOOXXXXXXXXXXXXXXXXXXXXXO     XXXXXXXXOOXXXXOOOOOOOXX",
"XXXXXXXXXXXXXXXXXXXXXXX     XXXXXXXXXXXXXXXXXXXXXXXX     XXXXXXXXXXXXXXXXXXXXXXX"
};
